<?xml version="1.0" encoding="utf-8"?>
<!-- Generator: Adobe Illustrator 26.0.3, SVG Export Plug-In . SVG Version: 6.00 Build 0)  -->
<svg version="1.1" id="Capa_1" xmlns="http://www.w3.org/2000/svg" xmlns:xlink="http://www.w3.org/1999/xlink" x="0px" y="0px"
	 viewBox="0 0 160 160" style="enable-background:new 0 0 160 160;" xml:space="preserve">
<style type="text/css">
	.st0{fill:#FFFFFF;}
</style>
<path class="st0" d="M22.15,99.83c1.21-1.83,2.02-4.37,3.57-4.95c1.24-0.47,3.3,1.86,5.14,2.18c2.08,0.37,4.42,0.28,6.44-0.31
	c2.02-0.59,3.74-2.13,5.67-3.09c5.05-2.53,9.93-2,14.64,0.99c1.35,0.86,2.77,1.62,4.52,2.63c0.19-1.01,0.41-1.65,0.41-2.3
	c-0.01-18.78-0.06-37.55-0.08-56.33c-0.01-8.21,3.81-14.07,11.06-17.75c3.93-1.99,8.19-2.06,12.44-1.8c0.59,0.04,1.27,1,1.62,1.68
	c0.25,0.5,0.02,1.24,0.02,1.87c0,3.53-0.04,3.37-3.66,3.62c-2.65,0.18-5.5,0.38-7.83,1.48c-4.65,2.19-6.7,6.28-6.63,11.46
	c0.07,4.64-1.25,4.99,4.93,4.95c7.31-0.05,14.63-0.1,21.94,0.04c2.57,0.05,3.35-0.88,3.17-3.33c-0.51-7.21,1.73-13.29,7.57-17.84
	c4.8-3.74,10.37-4.36,16.16-3.9c0.56,0.05,1.06,1.1,1.56,1.71c0.09,0.11,0,0.35,0.01,0.53c0.07,4.82,0.06,5.04-4.71,4.79
	c-7.16-0.38-13.67,5.08-13.53,13.45c0.29,16.97,0.07,33.94,0.02,50.91c0,1.65,0.45,2.4,2.23,1.89c3.75-1.08,7.1,0.13,10.33,1.91
	c1.42,0.78,2.82,1.6,4.22,2.43c2.48,1.46,4.94,1.47,7.4-0.05c0.46-0.28,0.97-0.48,1.44-0.74c3.2-1.75,5.58-0.63,6.04,3.04
	c0.09,0.75-0.58,1.93-1.26,2.39c-5.92,4.11-12.06,4.98-18.42,0.92c-0.61-0.39-1.27-0.7-1.85-1.12c-3.42-2.49-6.75-2.35-10.3-0.1
	c-2.18,1.38-4.55,2.66-7.01,3.37c-4.3,1.24-8.49,0.38-12.07-2.32c-4.59-3.45-8.85-3.45-13.61-0.13c-5.73,4-11.88,4.15-17.66-0.02
	c-4.58-3.31-8.77-3.21-13.39-0.01C35.12,107.22,27.94,105,22.15,99.83z M84.43,51.25c-4.14,0-8.29,0.07-12.43-0.03
	c-2.02-0.05-2.64,0.67-2.57,2.69c0.15,4.41,0.12,8.83-0.02,13.23c-0.06,1.94,0.66,2.57,2.48,2.56c8.37-0.04,16.75-0.04,25.12,0.01
	c1.88,0.01,2.55-0.76,2.51-2.6c-0.08-4.41-0.1-8.83,0-13.24c0.04-1.99-0.66-2.72-2.67-2.66C92.72,51.33,88.58,51.25,84.43,51.25z
	 M69.52,95.81c0.83-0.15,1.12-0.14,1.34-0.26c0.55-0.3,1.07-0.67,1.61-0.98c4.07-2.37,8.29-3.59,12.86-1.48
	c1.79,0.82,3.45,1.94,5.26,2.69c1.95,0.8,3.97,1.59,6.03,1.91c1.88,0.29,2.96-0.81,2.93-2.92c-0.08-5.14-0.09-10.28-0.03-15.42
	c0.02-1.69-0.51-2.5-2.31-2.49c-8.57,0.04-17.14,0.04-25.71,0.01c-1.69-0.01-2.13,0.74-2.09,2.34c0.11,4.24,0.07,8.48,0.09,12.72
	C69.52,93.12,69.52,94.33,69.52,95.81z"/>
<path class="st0" d="M127.31,123.85c-3.38-1.4-6.57-2.14-9.06-3.88c-4.65-3.25-8.76-3.28-13.36,0.02
	c-5.96,4.27-12.11,3.91-18.13-0.15c-2.74-1.85-5.58-3.49-9.05-1.98c-1.23,0.54-2.42,1.22-3.53,1.97c-6.13,4.18-12.23,4.21-18.4,0.08
	c-2.72-1.82-5.54-3.6-9.03-2.11c-1.32,0.56-2.55,1.33-3.77,2.09c-7.97,4.97-12.63,3.65-19.77-0.92c-0.46-0.3-0.83-1.46-0.62-1.94
	c0.61-1.38,1.4-2.75,2.4-3.86c0.38-0.42,1.84-0.49,2.29-0.11c4.6,3.87,8.9,3.05,13.52-0.14c5.83-4.02,11.95-3.85,17.64,0.31
	c4.55,3.32,8.68,3.03,13.12-0.09c5.78-4.06,11.89-4.25,17.63-0.11c4.83,3.48,9.04,3.23,13.8-0.12c5.57-3.92,11.62-3.93,17.18,0.04
	c4.67,3.34,8.99,3.77,13.53,0.11c1.28-1.03,2.18-0.47,2.9,0.64c0.59,0.9,1.26,1.82,1.52,2.83c0.19,0.73,0.02,2.12-0.44,2.36
	C134.32,120.65,130.83,122.2,127.31,123.85z"/>
<path class="st0" d="M22.01,136.1c1.05-1.77,1.93-3.43,3.01-4.94c0.28-0.39,1.24-0.46,1.85-0.39c0.48,0.06,0.92,0.53,1.34,0.87
	c3.67,2.98,7.29,2.83,11.13,0.16c1.9-1.32,4.05-2.42,6.25-3.1c4.19-1.29,8.2-0.42,11.92,1.85c0.69,0.42,1.43,0.79,2.07,1.28
	c3.56,2.77,7.03,2.57,10.66,0.03c4.19-2.93,8.78-4.8,13.97-3.18c2.2,0.69,4.39,1.73,6.26,3.08c3.84,2.77,7.36,2.62,11.17-0.06
	c1.89-1.32,4.07-2.41,6.28-3.05c4.09-1.2,8.04-0.4,11.67,1.85c0.77,0.48,1.59,0.88,2.3,1.42c3.49,2.65,6.91,2.5,10.45,0.02
	c0.94-0.66,2.9-1.49,3.19-1.16c1.21,1.35,2.02,3.07,2.8,4.74c0.15,0.32-0.37,1.21-0.81,1.52c-5.62,3.95-11.26,5.42-17.94,1.85
	c-0.48-0.25-0.96-0.52-1.38-0.86c-4.31-3.47-8.48-3.35-13.1-0.27c-2.37,1.58-5.38,2.41-8.23,2.97c-3.73,0.74-7.19-0.75-10.11-2.95
	c-4.2-3.17-8.14-3.17-12.36-0.13c-3.56,2.57-7.68,4.07-11.97,2.98c-3.24-0.82-6.27-2.62-9.24-4.27c-2.66-1.47-4.98-1.34-7.64,0.03
	c-3.24,1.68-6.57,3.49-10.08,4.28C30.47,141.84,26.28,139.17,22.01,136.1z"/>
</svg>
