<?xml version="1.0" encoding="utf-8"?>
<!-- Generator: Adobe Illustrator 26.0.3, SVG Export Plug-In . SVG Version: 6.00 Build 0)  -->
<svg version="1.1" id="Capa_1" xmlns="http://www.w3.org/2000/svg" xmlns:xlink="http://www.w3.org/1999/xlink" x="0px" y="0px"
	 viewBox="0 0 160 160" style="enable-background:new 0 0 160 160;" xml:space="preserve">
<style type="text/css">
	.st0{fill:#FFFFFF;}
</style>
<path class="st0" d="M79.45,150.73c-13.54,0-27.09,0.02-40.63-0.01c-5.5-0.01-8.07-2.61-8.07-8.16c0.01-14.03,0.09-28.07,0.12-42.1
	c0.02-8.53,0-17.05,0.01-25.58c0.01-5.18,3.24-8.34,8.47-8.32c0.98,0,1.97-0.06,2.94,0.05c2.36,0.25,3.78-0.07,3.86-3.12
	c0.1-3.28,3.2-5.61,6.89-5.42c2.68,0.14,3.42-0.79,3.39-3.33c-0.1-9.52,0.04-19.04-0.12-28.56c-0.02-1.3-0.93-2.85-1.9-3.81
	c-1.88-1.85-1.88-2.88,0.29-4.69c0.81-0.68,1.56-1.76,1.77-2.77c0.72-3.34,2.74-5.51,6.17-5.54c11.5-0.12,22.98-0.13,34.46-0.08
	c2.92,0.01,5,2.13,5.87,4.9c0.42,1.34,1.37,2.63,2.39,3.63c1.43,1.4,1.39,3.04,0.02,4.55c-0.99,1.1-2.06,2.65-2.09,4.03
	c-0.17,9.52-0.03,19.04-0.11,28.56c-0.02,2.26,0.67,3.11,3.04,3.11c4.85,0.01,6.73,1.75,7.2,6.47c0.17,1.73,0.99,2.03,2.49,2.08
	c2.51,0.08,5.12,0.03,7.51,0.68c3.82,1.04,5.23,4.02,5.22,7.88c-0.06,19.04-0.06,38.08-0.08,57.12c0,3.53,0.03,7.07-0.02,10.6
	c-0.08,5.06-2.81,7.82-7.86,7.83C106.93,150.75,93.19,150.73,79.45,150.73z M124.34,98.8c0-7.56,0-15.12,0-22.68
	c0-4.2-0.83-5.09-4.92-5.1c-7.07-0.02-14.14,0.11-21.2-0.06c-2.92-0.07-3.71,1.04-3.66,3.79c0.13,8.15,0.02,16.29,0.08,24.44
	c0.02,2.25-0.6,3.68-3.02,4.32c-0.86,0.23-1.91,1.61-1.99,2.54c-0.26,2.92-0.1,5.88-0.1,8.83c0.01,5.66-0.05,5.67-5.55,6.87
	c-0.77,0.17-1.37,1.13-2.05,1.72c0.66,0.74,1.21,1.64,2.01,2.17c0.69,0.46,1.68,0.43,2.5,0.74c5.94,2.27,12.02,2.73,18.18,1.2
	c5.68-1.4,11.17-3.77,17.26-2.74c2.21,0.37,2.48-1.32,2.47-3.07C124.32,114.12,124.33,106.46,124.34,98.8z M64.72,86.84
	c0-3.83,0-7.66,0-11.49c0-4.34,0-4.34-4.48-4.34c-6.38,0-12.76,0-19.14,0c-5.47,0-6.23,0.78-6.2,6.29
	c0.06,13.72,0.12,27.44,0.17,41.16c0.02,6.04,0.01,6.04,5.94,7.37c0.56,0.13,1.07,0.51,1.63,0.64c2.84,0.65,5.75,1.97,8.51,1.72
	c5.78-0.54,11.47-1.97,17.21-2.93c2.39-0.4,4.84-0.45,7.24-0.82c0.62-0.1,1.15-0.8,1.72-1.23c-0.53-0.49-1.01-1.07-1.62-1.43
	c-0.38-0.22-0.96-0.09-1.45-0.12c-3.03-0.24-4.43-1.65-4.46-4.67c-0.04-3.53-0.03-7.07,0.01-10.6c0.02-1.68-0.39-2.79-2.35-3.03
	c-2.13-0.27-2.8-1.8-2.77-3.84C64.76,95.28,64.71,91.06,64.72,86.84z M79.83,146.68c13.34,0,26.69,0.01,40.03-0.01
	c3.5,0,4.43-0.87,4.48-4.29c0.06-3.53-0.04-7.06-0.01-10.6c0.01-1.91-0.75-3.07-2.77-2.91c-3.4,0.27-7.01,0.02-10.14,1.11
	c-9.06,3.16-17.94,3.65-26.97,0.18c-1.73-0.66-2.63,0.08-2.58,1.95c0.03,1.47,0.02,2.94,0.04,4.41c0.02,1.57-0.14,3.12-2.17,3.16
	c-2.01,0.04-2.31-1.43-2.3-3.04c0.01-1.57-0.03-3.14,0.03-4.71c0.09-2.11-0.87-3.24-2.97-2.99c-3.18,0.37-6.46,0.53-9.48,1.49
	c-7.23,2.3-14.39,3.19-21.74,0.76c-1.76-0.58-3.54-1.13-5.35-1.5c-1.88-0.38-2.97,0.28-2.89,2.49c0.11,3.23-0.01,6.47,0.04,9.71
	c0.05,3.8,1.11,4.77,5.03,4.77C53.34,146.68,66.59,146.68,79.83,146.68z M79.67,22.88c-5.3,0-10.6,0.05-15.9-0.02
	c-2.21-0.03-3.21,0.76-3.19,3.09c0.07,9.03,0.08,18.06,0,27.09c-0.02,2.31,0.88,3.08,3.15,3.06c10.7-0.08,21.4-0.09,32.09,0
	c2.3,0.02,3.12-0.7,3.09-3.03c-0.1-9.03-0.11-18.06-0.01-27.09c0.03-2.52-0.99-3.19-3.34-3.14C90.27,22.98,84.97,22.89,79.67,22.88z
	 M81.88,96.24C81.88,96.24,81.89,96.24,81.88,96.24c0.01,5.59-0.1,11.19,0.08,16.78c0.05,1.53,1.12,4.36,1.52,4.33
	c2.65-0.24,1.64-2.58,1.69-4.15c0.13-3.63,0.07-7.26,0.02-10.89c-0.03-1.91,0.57-3,2.71-2.86c2.02,0.13,2.75-0.98,2.72-2.92
	c-0.06-5.2-0.04-10.4-0.03-15.61c0.01-5.62,0.01-5.53-5.67-5.49c-2.3,0.02-3.12,0.87-3.08,3.15C81.95,84.46,81.88,90.35,81.88,96.24
	z M77.44,96.56c0-5.1,0-10.2,0-15.31c0.01-6.18-0.04-6.19-6.22-5.81c-1.72,0.1-2.49,0.75-2.48,2.49c0.04,6.28-0.05,12.56,0.11,18.84
	c0.02,0.89,1.18,2.55,1.72,2.51c3.91-0.28,3.64,2.21,3.58,4.78c-0.07,3.73-0.12,7.46,0.05,11.18c0.04,0.8,1.05,1.56,1.62,2.33
	c0.53-0.72,1.21-1.39,1.55-2.19c0.25-0.58,0.07-1.35,0.07-2.04C77.44,107.74,77.44,102.15,77.44,96.56z M79.71,17.33
	c0-0.01,0-0.01,0-0.02c5.49,0,10.98-0.01,16.47,0.01c1.34,0.01,2.93,0.05,2.51-1.79c-0.18-0.82-1.65-1.92-2.55-1.93
	c-10.88-0.14-21.77-0.15-32.65,0.01c-0.92,0.01-1.82,1.5-2.73,2.3c0.92,0.48,1.84,1.34,2.77,1.36
	C68.92,17.39,74.32,17.33,79.71,17.33z"/>
<path class="st0" d="M79.68,50.59c-6.12,0.01-9.9-6.25-7.12-12.5c1.35-3.05,3.71-5.68,5.81-8.35c0.36-0.45,2.28-0.47,2.56-0.06
	c2.29,3.35,4.96,6.62,6.34,10.35C89.21,45.24,85,50.58,79.68,50.59z"/>
</svg>
