<?xml version="1.0" encoding="utf-8"?>
<!-- Generator: Adobe Illustrator 26.0.3, SVG Export Plug-In . SVG Version: 6.00 Build 0)  -->
<svg version="1.1" id="Capa_1" xmlns="http://www.w3.org/2000/svg" xmlns:xlink="http://www.w3.org/1999/xlink" x="0px" y="0px"
	 viewBox="0 0 160 160" style="enable-background:new 0 0 160 160;" xml:space="preserve">
<style type="text/css">
	.st0{fill:#FFFFFF;}
</style>
<path class="st0" d="M80.22,119.83c-23.04,0-46.09,0-69.13,0c-0.72,0-1.6,0.25-2.13-0.07c-1.05-0.65-1.9-1.61-2.84-2.44
	c0.88-0.88,1.71-2.44,2.65-2.51c2.48-0.18,2.62-1.48,2.62-3.41c-0.05-17.64-0.05-35.29-0.06-52.93c0-4.26,0.6-4.89,4.79-4.89
	c9.09,0.01,18.18-0.04,27.27,0.08c1.77,0.02,2.39-0.61,2.18-2.13c-0.66-4.62,1.35-5.49,5.22-6.7c17.67-5.56,35.48-6.43,53.45-1.52
	c2.25,0.61,4.44,1.48,6.71,2.01c2.66,0.62,3.68,2.1,3.54,4.82c-0.18,3.41-0.01,3.45,3.42,3.45c8.82,0,17.64-0.01,26.46-0.01
	c3.89,0,4.74,0.82,4.74,4.78c0,17.55,0.01,35.11-0.03,52.66c0,2.03-0.1,3.72,2.77,3.81c0.76,0.02,2.1,1.71,2.04,2.56
	c-0.06,0.85-1.45,1.72-2.4,2.37c-0.44,0.3-1.23,0.09-1.86,0.09C126.49,119.83,103.35,119.83,80.22,119.83z M59.07,91.83
	c0.01,0,0.02,0,0.02,0c0,6.75,0.04,13.5-0.03,20.25c-0.02,1.83,0.59,2.51,2.48,2.59c2.51,0.11,3.02-1.04,2.99-3.25
	c-0.09-8.01-0.04-16.02-0.05-24.03c-0.01-3.9,0.78-4.76,4.74-4.78c7.47-0.03,14.94,0,22.41,0.03c3.89,0.02,4.69,0.9,4.68,4.83
	c-0.01,8.01-0.01,16.02-0.02,24.03c0,1.69-0.12,3.17,2.43,3.17c2.34,0,2.64-1.08,2.64-2.98c-0.02-13.05,0-26.09,0.07-39.14
	c0.01-1.94-0.65-2.73-2.67-2.72c-12.42,0.06-24.84,0.05-37.26,0c-1.89-0.01-2.49,0.69-2.47,2.55
	C59.13,78.87,59.07,85.35,59.07,91.83z M69.76,101.15c0,3.68,0.04,7.37-0.02,11.05c-0.03,1.66,0.44,2.45,2.29,2.42
	c5.57-0.09,11.14-0.06,16.71,0.01c1.78,0.02,2.65-0.48,2.63-2.42c-0.06-7.28-0.05-14.55-0.01-21.83c0.01-1.86-0.77-2.52-2.61-2.49
	c-5.48,0.08-10.96,0.12-16.44,0.01c-2.13-0.05-2.61,0.89-2.57,2.75C69.82,94.14,69.76,97.65,69.76,101.15z M80.18,64.4
	c20.25,0,40.5-0.02,60.75,0.03c2.03,0,2.92-0.58,2.97-2.75c0.06-2.25-0.97-2.75-2.93-2.74c-8.1,0.05-16.2,0-24.3,0.06
	c-0.81,0.01-1.62,0.5-2.42,0.79c-1.37,0.49-2.73,1.43-4.09,1.44c-19.44,0.09-38.88,0.05-58.32,0.05c-2.23,0-4.52,0.38-6.16-1.79
	c-0.3-0.4-1.14-0.53-1.73-0.54c-8.37-0.02-16.74,0.01-25.11,0c-1.53,0-2.29,0.55-2.38,2.19c-0.13,2.39,0.68,3.31,3.24,3.3
	C39.86,64.35,60.02,64.39,80.18,64.4z M80.19,56.33c0-0.01,0-0.01,0-0.02c8.73,0,17.45-0.01,26.18,0.01c1.53,0,3.02-0.01,3.02-2.1
	c0-1.81,0.51-3.64-2.2-4.45c-18.01-5.39-35.96-5.32-53.97-0.04c-2.89,0.85-2.11,2.95-2.13,4.77c-0.02,1.98,1.55,1.83,2.92,1.83
	C62.74,56.32,71.46,56.33,80.19,56.33z M127.87,85.44c0,4.49,0.03,8.99-0.02,13.48c-0.01,1.51,0.32,2.29,2.12,2.21
	c3.68-0.15,7.37-0.14,11.05-0.02c2.07,0.07,2.87-0.59,2.85-2.75c-0.09-8.62-0.09-17.25,0.01-25.88c0.02-2.09-0.85-2.68-2.72-2.65
	c-3.23,0.06-6.47,0.03-9.7,0.02c-3.59-0.01-3.59-0.01-3.59,3.71C127.87,77.54,127.87,81.49,127.87,85.44z M32.68,85.62
	c0-4.4-0.05-8.81,0.03-13.21c0.03-1.67-0.51-2.56-2.27-2.55c-3.95,0.02-7.91,0.01-11.86,0.01c-1.45,0-2.08,0.69-2.08,2.17
	c0.04,8.9,0.06,17.79,0.01,26.69c-0.01,1.95,0.9,2.43,2.67,2.39c3.59-0.09,7.19-0.14,10.78,0.02c2.23,0.1,2.8-0.83,2.75-2.85
	C32.61,94.06,32.67,89.84,32.68,85.62z M122.84,85.37c0-4.41-0.03-8.82,0.02-13.23c0.02-1.58-0.56-2.32-2.2-2.3
	c-3.87,0.05-7.74,0.04-11.61,0.02c-1.62-0.01-2.46,0.53-2.44,2.36c0.07,8.73,0.07,17.46,0.01,26.19c-0.01,1.94,0.63,2.78,2.66,2.72
	c3.69-0.11,7.38-0.12,11.07-0.01c1.91,0.06,2.55-0.7,2.52-2.53C122.79,94.19,122.84,89.78,122.84,85.37z M53.94,85.37
	c0-4.4-0.04-8.8,0.02-13.2c0.02-1.73-0.65-2.39-2.41-2.34c-3.68,0.1-7.37,0.08-11.05,0.03c-1.85-0.03-2.77,0.46-2.74,2.59
	c0.11,8.62,0.09,17.25,0.03,25.87c-0.02,2.06,0.64,2.91,2.81,2.82c3.68-0.15,7.37-0.14,11.05,0c1.81,0.07,2.37-0.54,2.34-2.3
	C53.89,94.36,53.95,89.87,53.94,85.37z M35.25,114.59c0-0.01,0-0.02,0-0.03c4.4,0,8.8,0.01,13.2,0c5.85-0.02,5.8-0.02,5.52-5.85
	c-0.08-1.74-0.71-2.28-2.47-2.26c-9.97,0.09-19.94,0.06-29.9,0.06c-5.23,0-5.15,0-5.11,5.36c0.01,2.12,0.77,2.81,2.87,2.76
	C24.65,114.51,29.95,114.59,35.25,114.59z M124.98,114.58c0,0.01,0,0.01,0,0.02c5.39,0,10.78-0.05,16.17,0.03
	c1.93,0.03,2.89-0.63,2.7-2.65c-0.07-0.71-0.08-1.45,0.01-2.15c0.33-2.62-0.81-3.4-3.39-3.36c-9.52,0.13-19.04,0.06-28.56,0.06
	c-5.47,0-5.4-0.01-5.3,5.47c0.04,2.02,0.81,2.65,2.75,2.62C114.56,114.52,119.77,114.58,124.98,114.58z"/>
</svg>
