<?xml version="1.0" encoding="utf-8"?>
<!-- Generator: Adobe Illustrator 26.0.3, SVG Export Plug-In . SVG Version: 6.00 Build 0)  -->
<svg version="1.1" id="Capa_1" xmlns="http://www.w3.org/2000/svg" xmlns:xlink="http://www.w3.org/1999/xlink" x="0px" y="0px"
	 viewBox="0 0 160 160" style="enable-background:new 0 0 160 160;" xml:space="preserve">
<style type="text/css">
	.st0{fill:#FFFFFF;}
</style>
<path class="st0" d="M143.94,62.69c-4.49-14.6-18.89-25.08-34.19-25.81c-7.17-0.34-14.36-0.22-21.54-0.28
	c-3.4-0.03-3.57-0.3-3.6-3.61c-0.01-2.17,1.14-2.39,2.85-2.5c3-0.19,5.04-2.32,4.91-4.87c-0.13-2.53-2.17-4.29-5.08-4.3
	c-12.6-0.02-25.19-0.03-37.79,0.03c-0.99,0-2.14,0.32-2.94,0.88c-1.65,1.16-2.48,2.89-1.72,4.88c0.87,2.29,2.68,3.53,5.18,3.39
	c2.58-0.14,2.46,1.52,2.54,3.31c0.09,1.95-0.47,3.06-2.61,3.08c-6.69,0.08-12.68,2.43-18.12,6.1c-13.16,8.87-19.26,21.43-17.63,37.1
	c1.59,15.26,10.07,25.95,24.17,32.09c1.73,0.76,3.51,1.4,5.92,2.36c-3.8,2.46-6.5,5.08-7.09,9.11c-0.59,3.98,0.25,7.59,3.08,10.59
	c3.6,3.83,10.67,5.73,13.85,3.47c3.03-2.15,5.85-4.54,6.97-8.42c1.6-5.53-0.79-9.73-4.71-13.73c0.93-0.31,1.18-0.47,1.42-0.47
	c15.17,0.03,30.33,0.1,45.5,0.08c2.35,0,3.08,0.88,3.01,3.18c-0.15,4.87-0.11,9.76-0.04,14.63c0.05,3.34,1.66,5.3,4.21,5.38
	c3.27,0.11,4.81-1.51,4.87-5.41c0.08-5.23,0.12-10.47-0.04-15.7c-0.06-2.07,0.61-3.18,2.59-3.61c0.69-0.15,1.35-0.45,2.01-0.7
	C141.96,104.57,150.4,83.71,143.94,62.69z M61.67,33.71c0.07-1.51-0.24-3.19,2.11-3.16c1.69,0.02,3.37,0,5.06,0
	c1.06,0,2.13,0,3.19,0c3.12-0.01,4.55,2.09,3.23,4.94c-0.25,0.54-1.21,1.05-1.86,1.07c-3.19,0.1-6.39,0.02-9.58,0.02
	C61.79,36.59,61.59,35.3,61.67,33.71z M42.6,104.01c-10.81-4.03-18.92-14.87-19.44-26.8c-0.61-13.82,8.71-25.75,19.73-29.53
	c2.72-0.93,3.11-0.71,3.12,2.18c0,8.69-0.01,17.38-0.01,26.07c0,8.51,0,17.03,0,25.54C46,104.92,45.7,105.16,42.6,104.01z
	 M107.5,76.04c0,8.96-0.07,17.92,0.04,26.88c0.03,2.38-0.84,3.06-3.11,3.05c-16.24-0.07-32.47-0.07-48.71,0
	c-2.43,0.01-3.22-0.77-3.21-3.24c0.09-17.92,0.09-35.85,0-53.77c-0.01-2.51,0.86-3.18,3.25-3.17c16.24,0.08,32.47,0.07,48.71,0
	c2.32-0.01,3.1,0.74,3.07,3.08C107.44,57.93,107.5,66.99,107.5,76.04z M117.62,103.98c-3.08,1.2-3.57,0.84-3.57-2.37
	c0.01-17.13,0-34.25,0-51.38c0-3.24,0.54-3.62,3.58-2.41c11.76,4.67,19.41,15.69,19.39,27.94
	C136.97,89.05,128.73,99.66,117.62,103.98z"/>
</svg>
