<?xml version="1.0" encoding="utf-8"?>
<!-- Generator: Adobe Illustrator 26.0.3, SVG Export Plug-In . SVG Version: 6.00 Build 0)  -->
<svg version="1.1" id="Capa_1" xmlns="http://www.w3.org/2000/svg" xmlns:xlink="http://www.w3.org/1999/xlink" x="0px" y="0px"
	 viewBox="0 0 160 160" style="enable-background:new 0 0 160 160;" xml:space="preserve">
<style type="text/css">
	.st0{fill:#FFFFFF;}
</style>
<path class="st0" d="M79.58,18.74c15.24,0,30.49,0.06,45.73-0.05c3.38-0.02,5.54,1.38,6.98,4.25c4.91,9.78,9.86,19.54,14.69,29.36
	c3.53,7.17,0.53,19.6-6.28,25.13c-2.38,1.94-3.15,3.9-3.12,6.9c0.16,14.93,0.1,29.86,0.06,44.79c-0.02,10.42-6.89,17.22-17.34,17.22
	c-27.15,0.01-54.3,0.01-81.44,0c-10.35,0-17.42-7.11-17.44-17.56c-0.02-15.24-0.04-30.49,0.05-45.73c0.01-2.3-0.66-3.82-2.52-5.29
	c-4.8-3.81-7.26-8.67-7.43-15.11c-0.18-6.52,1.29-12.22,4.4-17.86c3.97-7.2,7.46-14.67,11.15-22.03c1.4-2.79,3.54-4.09,6.77-4.07
	C49.09,18.79,64.34,18.74,79.58,18.74z M79.65,29.36c-13.78,0-27.56,0.05-41.35-0.05c-2.17-0.01-3.53,0.65-4.47,2.59
	c-3.88,7.97-7.87,15.88-11.71,23.87c-2.16,4.5-1.29,8.8,1.75,12.54c2.83,3.48,6.69,4.56,10.99,3.29c4.68-1.39,7.24-4.65,7.84-9.51
	c0.48-3.89,2.35-5.88,5.27-5.8c2.82,0.08,4.52,2.01,5.05,5.72c0.89,6.16,5.19,10.19,10.81,10.12c5.8-0.07,9.91-4.18,10.6-10.62
	c0.33-3.04,2.19-5.05,4.83-5.24c2.62-0.19,4.63,1.62,5.33,4.66c0.44,1.92,0.69,3.98,1.6,5.67c2.29,4.26,6.77,6.18,11.38,5.25
	c4.92-0.99,7.81-4.34,8.71-10.1c0.56-3.63,2.4-5.54,5.25-5.47c2.84,0.07,4.74,2.16,4.99,5.69c0.24,3.35,1.75,5.99,4.36,7.96
	c3.93,2.97,9.17,2.84,13.09-0.18c3.82-2.95,5.45-9.29,3.22-13.93c-3.88-8.08-8.05-16.02-11.97-24.08c-1.01-2.08-2.49-2.41-4.54-2.41
	C107,29.38,93.33,29.35,79.65,29.36z M127.56,107.48c0.01,0,0.01,0,0.02,0c0-7.31-0.05-14.61,0.03-21.92
	c0.02-2.14-0.54-3.29-2.91-3.43c-4.21-0.25-7.92-1.95-10.96-4.82c-1.76-1.67-2.84-1.54-4.68,0.02c-8.08,6.87-19.26,6.82-27.2-0.11
	c-1.75-1.53-2.74-1.44-4.43-0.02c-8.47,7.09-19.34,7-27.69-0.24c-1.58-1.37-2.33-0.91-3.93,0.03c-3.44,2.02-7.09,3.87-10.89,5
	c-2.42,0.72-3.23,1.57-3.21,3.97c0.07,14.09,0.04,28.18,0.05,42.28c0.01,5.58,2.03,7.45,7.56,7.54c2.8,0.05,3.59-1.09,3.54-3.75
	c-0.14-7.62-0.15-15.24-0.06-22.86c0.09-7.76,4.83-13.85,12.17-15.41c2.61-0.55,5.4-0.41,8.1-0.39c9.77,0.06,16.24,6.56,16.29,16.34
	c0.03,7.52,0.06,15.03-0.05,22.55c-0.04,2.55,0.88,3.53,3.48,3.51c12.63-0.08,25.26-0.04,37.89-0.05c4.58,0,6.86-2.29,6.88-6.95
	C127.58,121.68,127.56,114.58,127.56,107.48z M69.29,121.29h-0.01c0-1.88,0-3.76,0-5.64s0.07-3.76-0.01-5.64
	c-0.17-4.05-2.22-6.16-6.21-6.39c-1.46-0.08-2.93-0.1-4.38,0.03c-3.62,0.31-5.62,2.24-5.67,5.83c-0.11,7.83-0.03,15.66-0.05,23.49
	c-0.01,1.97,0.9,2.84,2.87,2.8c3.34-0.06,6.69-0.14,10.02,0c2.64,0.12,3.54-1.01,3.46-3.53C69.21,128.6,69.29,124.94,69.29,121.29z"
	/>
<path class="st0" d="M103.58,98.63c2.39,0,4.78-0.05,7.17,0.02c3.52,0.1,5.84,2.25,5.75,5.22c-0.08,2.83-2.4,4.96-5.67,5
	c-4.88,0.06-9.77,0.06-14.65,0c-3.43-0.05-5.85-2.31-5.79-5.24c0.05-2.79,2.4-4.89,5.71-4.99C98.59,98.56,101.08,98.62,103.58,98.63
	z"/>
</svg>
