<?xml version="1.0" encoding="utf-8"?>
<!-- Generator: Adobe Illustrator 26.0.3, SVG Export Plug-In . SVG Version: 6.00 Build 0)  -->
<svg version="1.1" id="Capa_1" xmlns="http://www.w3.org/2000/svg" xmlns:xlink="http://www.w3.org/1999/xlink" x="0px" y="0px"
	 viewBox="0 0 160 160" style="enable-background:new 0 0 160 160;" xml:space="preserve">
<style type="text/css">
	.st0{fill:#FFFFFF;}
</style>
<path class="st0" d="M115.15,89.23c0,10.36,0,20.72,0,31.08c0,3.27,0.26,3.53,3.47,3.52c3.48-0.01,6.97-0.02,10.45-0.02
	c2.16,0,3.32,0.94,3.26,3.25c-0.07,2.77,0.04,5.54-0.04,8.3c-0.08,2.82-0.99,3.68-3.73,3.68c-16.88,0-33.75-0.05-50.63,0.05
	c-2.59,0.01-3.65-1.18-3.76-3.42c-0.15-3.03-0.12-6.07-0.03-9.1c0.06-1.95,1.28-2.78,3.22-2.76c3.66,0.05,7.32-0.04,10.98,0.04
	c2.16,0.05,2.98-0.74,2.97-2.99c-0.06-21.07-0.05-42.15,0.01-63.22c0.01-2.11-0.74-2.86-2.81-2.83c-5.8,0.07-11.61,0.07-17.41-0.02
	c-2.02-0.03-2.73,0.79-2.64,2.7c0.08,1.78,0.24,3.6-0.01,5.35c-0.56,3.86,0.95,6.6,3.79,9.09c1.6,1.4,3.1,2.12,5.22,2.07
	c4.59-0.12,6.46,1.84,6.49,6.46c0.01,1.96,0.05,3.93-0.02,5.89c-0.11,3.51-2.05,5.55-5.5,5.57c-8.21,0.06-16.43,0.05-24.65,0
	c-3.45-0.02-5.39-2.08-5.45-5.58c-0.04-2.32-0.05-4.64,0-6.96c0.08-3.28,2.14-5.68,5.37-5.32c4.98,0.56,7.1-3.04,9.7-5.94
	c0.62-0.7,0.43-2.2,0.46-3.34c0.06-2.41-0.08-4.83,0.06-7.23c0.13-2.15-0.75-2.89-2.82-2.74c-1.78,0.13-3.59,0.19-5.35-0.02
	c-0.84-0.1-1.98-0.71-2.29-1.4c-0.31-0.68-0.03-1.99,0.49-2.62c5.13-6.29,10.29-12.56,15.65-18.66c0.9-1.02,2.76-1.69,4.18-1.7
	c17.86-0.11,35.72-0.08,53.58-0.04c1.98,0.01,3.48-0.05,3.62-2.65c0.1-1.81,1.58-2.41,3.3-2.41c6.25,0.01,12.5,0.01,18.75,0.01
	c2.23,0,3.3,1.26,3.31,3.35c0.04,9.11,0.06,18.22-0.01,27.32c-0.02,2.32-1.48,3.67-3.76,3.71c-5.98,0.09-11.97,0.05-17.95,0.01
	c-1.91-0.01-3.33-0.92-3.66-2.87c-0.31-1.77-1.38-2.04-2.87-2.02c-3.3,0.05-6.61,0.14-9.91-0.01c-2.38-0.11-3.11,0.81-3.09,3.11
	C115.19,68.33,115.14,78.78,115.15,89.23z M95.92,89.06c0.01,0,0.03,0,0.04,0c0,10.53,0.04,21.06-0.04,31.59
	c-0.02,2.25,0.62,3.3,3.03,3.2c3.12-0.14,6.25-0.07,9.37-0.02c1.69,0.03,2.41-0.66,2.41-2.38c-0.02-21.41-0.02-42.83,0.01-64.24
	c0-1.67-0.56-2.46-2.33-2.42c-3.3,0.08-6.6,0.09-9.9,0c-1.96-0.05-2.64,0.7-2.63,2.68C95.96,68,95.92,78.53,95.92,89.06z
	 M135.32,42.36c0,3.3,0.09,6.6-0.03,9.89c-0.08,2.03,0.53,2.95,2.7,2.88c3.74-0.12,7.48-0.11,11.22-0.01
	c1.88,0.05,2.55-0.69,2.54-2.5c-0.04-6.95-0.05-13.9-0.01-20.85c0.01-1.82-0.7-2.54-2.55-2.5c-3.74,0.1-7.48,0.09-11.22,0.01
	c-1.94-0.04-2.74,0.67-2.68,2.66C135.38,35.41,135.32,38.88,135.32,42.36z M103.1,133.84c7.23,0,14.46-0.06,21.68,0.04
	c2.11,0.03,3.12-0.46,3.08-2.8c-0.04-2.26-0.94-2.87-3.09-2.86c-14.36,0.07-28.73,0.07-43.1-0.01c-2.15-0.01-3,0.59-3.04,2.87
	c-0.04,2.38,0.96,2.83,3.05,2.81C88.82,133.79,95.96,133.85,103.1,133.84z M66.06,87.13c2.59,0,5.17-0.01,7.76,0
	c6.56,0.03,5.36,0.38,5.59-5.59c0.09-2.27-0.81-2.99-2.96-2.96c-5.89,0.08-11.78-0.02-17.66,0.04c-6.34,0.06-5.64-1.22-5.77,5.88
	c-0.04,2.19,0.84,2.75,2.87,2.67C59.28,87.03,62.67,87.13,66.06,87.13z M117.16,50.13c-0.56-0.99-0.75-1.58-1.15-1.98
	c-3.58-3.61-7.26-7.12-10.78-10.79c-1.4-1.45-2.31-1.07-3.51,0.14c-3.51,3.55-7.1,7.03-10.63,10.57c-0.45,0.45-0.71,1.08-1.32,2.05
	C99.06,50.13,107.81,50.13,117.16,50.13z M71.67,50.32c0,0.01,0,0.01,0,0.02c2.93,0,5.87,0.03,8.8-0.02
	c0.57-0.01,1.37-0.16,1.62-0.54c0.22-0.33-0.03-1.2-0.36-1.61c-2.75-3.48-5.51-6.96-8.43-10.3c-0.41-0.47-2.13-0.6-2.49-0.2
	c-3.1,3.42-6.04,6.98-8.99,10.53c-0.31,0.37-0.63,1.16-0.46,1.39c0.31,0.4,0.98,0.7,1.51,0.71C65.8,50.35,68.73,50.32,71.67,50.32z
	 M77.68,34.91c0.06,0.56-0.02,0.99,0.15,1.22c2.47,3.14,4.92,6.3,7.54,9.31c0.29,0.34,1.83,0.13,2.33-0.33
	c2.88-2.64,5.64-5.41,8.4-8.19c0.44-0.44,0.62-1.12,1.09-2.01C90.45,34.91,84.14,34.91,77.68,34.91z M109.64,34.95
	c0.76,1.02,1.15,1.68,1.66,2.2c1.56,1.58,3.19,3.1,4.77,4.65c4.33,4.25,4.34,4.26,7.43-1c1.03-1.76,1.98-3.58,3.23-5.85
	C120.78,34.95,115.59,34.95,109.64,34.95z M130.67,39.04c-0.73,0.32-1.07,0.36-1.18,0.54c-1.77,2.97-3.56,5.93-5.17,8.98
	c-0.17,0.32,0.61,1.59,1.14,1.74c0.98,0.27,2.17,0.25,3.15-0.05c0.78-0.23,1.92-1.03,1.96-1.63
	C130.77,45.56,130.67,42.47,130.67,39.04z"/>
<path class="st0" d="M10.47,100.71c0-10.8,0.02-21.6-0.02-32.4c-0.01-1.69,0.07-3.01,2.32-2.96c2.13,0.04,2.16,1.36,2.15,2.89
	c-0.02,4.55,0.1,9.11-0.08,13.65c-0.09,2.33,0.85,3.03,2.97,2.95c2.14-0.08,4.29-0.09,6.42,0.01c1.88,0.09,2.68-0.73,2.49-2.54
	c-0.21-1.96,0.36-3.12,2.57-3.04c2.16,0.08,2.28,1.39,2.25,3.11c-0.09,4.82,0,9.64-0.06,14.46c-0.03,1.93,0.66,2.77,2.69,2.63
	c2.04-0.15,4.11-0.11,6.16-0.01c2.14,0.1,3.26-0.63,2.97-2.92c-0.06-0.44-0.03-0.89-0.02-1.34c0.02-1.5-0.3-3.21,2.06-3.25
	c2.25-0.04,2.54,1.31,2.51,3.17c-0.08,5.62-0.04,11.25-0.04,16.87c0,7.14,0,14.28,0.01,21.42c0,3.39-0.17,3.55-3.69,3.55
	c-10.09,0-20.17-0.07-30.26,0.06c-2.59,0.03-3.46-0.8-3.44-3.36C10.52,122.66,10.47,111.69,10.47,100.71z M37.2,132.43
	c7.12-0.03,6.02,0.69,6.09-6.12c0-0.18,0-0.36,0-0.53c0.04-6.34,0.42-5.45-5.36-5.45c-6.41,0.01-6.41,0-6.41,6.48
	C31.51,132.42,31.51,132.42,37.2,132.43z M26.73,126.61c-0.05-7.33,0.76-6.27-5.58-6.27c-7.05,0-6.24-1.05-6.24,6.18
	c0.01,6.43-0.96,5.96,6.04,5.9C27.32,132.36,26.71,133.59,26.73,126.61z M20.82,115.59c5.92,0,5.93,0,5.91-5.22
	c-0.03-7.41,0.76-6.17-6.21-6.27c-6.7-0.1-5.62,0.05-5.61,5.6C14.92,115.52,13.75,115.68,20.82,115.59z M36.93,115.59
	c7.25,0.04,6.37,0.4,6.35-5.96c-0.02-5.52,1.15-5.63-5.66-5.52c-6.69,0.11-6.09-1.3-6.12,6.06
	C31.48,116.84,31.4,115.51,36.93,115.59z M20.86,89.49c-7.19-0.03-5.86-0.32-5.95,6c-0.01,0.53,0.01,1.07-0.02,1.6
	c-0.11,1.6,0.71,2.31,2.22,2.33c1.87,0.02,3.74-0.01,5.61,0c4.02,0.02,4.03,0.02,4.01-3.92C26.7,88.44,27.48,89.58,20.86,89.49z"/>
</svg>
