<?xml version="1.0" encoding="utf-8"?>
<!-- Generator: Adobe Illustrator 26.0.3, SVG Export Plug-In . SVG Version: 6.00 Build 0)  -->
<svg version="1.1" id="Capa_1" xmlns="http://www.w3.org/2000/svg" xmlns:xlink="http://www.w3.org/1999/xlink" x="0px" y="0px"
	 viewBox="0 0 160 160" style="enable-background:new 0 0 160 160;" xml:space="preserve">
<style type="text/css">
	.st0{fill:#FFFFFF;}
</style>
<path class="st0" d="M81.66,151.47c-17,0-34.01,0-51.01,0c-1.68,0-3.52,0.33-4.19-1.91c-0.57-1.88-0.16-3.17,1.73-4.2
	c0.64-0.35,0.81-1.99,0.81-3.04c0.05-15.77,0.04-31.55,0.02-47.32c0-4.38,0.54-4.95,4.82-4.95c8.41,0,16.82-0.09,25.22,0.07
	c2.67,0.05,3.43-0.89,3.42-3.44c-0.09-15.77-0.05-31.55-0.06-47.32c0-3.71,0.43-4.14,4.1-5.04c0.6-0.15,1.31-1.02,1.43-1.66
	c0.24-1.18,0.17-2.45,0.07-3.67c-0.23-2.62,0.19-4.82,2.81-6.22c0.73-0.39,1-1.54,1.62-2.23c1.23-1.38,2.34-3.04,3.88-3.94
	c2-1.17,3.2-2.33,3-4.83c-0.16-1.98,0.66-3.86,3.06-3.09c0.92,0.3,1.92,2.13,1.9,3.23c-0.06,2.5,0.98,3.75,3.11,4.75
	c1.21,0.57,2.15,1.77,3.1,2.79c1.33,1.44,2.96,2.79,3.71,4.51c0.9,2.04,1.26,4.41,1.39,6.66c0.13,2.17,0.05,3.82,3.02,3.95
	c0.94,0.04,1.96,1.84,2.62,3.02c0.37,0.65,0.07,1.66,0.07,2.51c0,33.91,0,67.82,0,101.73c0,3.82,0.01,3.81,3.73,3.79
	c3.21-0.02,6.43,0.09,9.63-0.06c1.01-0.05,2.83-0.73,2.84-1.16c0.06-1.89,1.25-4.22-1.3-5.56c-1.41-0.74-2.95-1.36-4.15-2.38
	c-4.38-3.7-6.11-10.54-4.16-15.71c1.91-5.08,7.41-8.6,13.25-8.5c5.56,0.1,10.96,4.06,12.9,9.45c2.16,6.03-1.62,14.2-7.74,16.7
	c-2.73,1.12-3.78,3.1-2.72,5.75c0.28,0.7,1.5,1.36,2.33,1.42c2.44,0.18,4.91,0.01,7.36,0.04c1.9,0.02,4.19-0.13,4.05,2.64
	c-0.13,2.53-1.9,3.28-4.37,3.26c-12.09-0.09-24.18-0.05-36.27-0.05C91.68,151.47,86.67,151.47,81.66,151.47z M68.04,92.16
	c0,16.63,0,33.25,0,49.88c0,3.58,0.01,3.61,3.66,3.57c7.08-0.07,14.16-0.22,21.25-0.21c2.22,0,2.94-0.84,2.93-3.04
	c-0.05-33.25-0.04-66.5,0.02-99.75c0-2.26-0.79-2.98-2.97-2.96c-7.18,0.04-14.36,0.03-21.53-0.15c-2.57-0.06-3.43,0.68-3.41,3.35
	C68.09,59.29,68.04,75.72,68.04,92.16z M34.37,120.42c0,7.37,0.08,14.73-0.05,22.1c-0.04,2.39,0.79,3.19,3.11,3.13
	c7.36-0.17,14.72-0.27,22.08-0.27c2.1,0,2.53-0.98,2.55-2.78s-0.36-2.86-2.5-2.77c-3.3,0.14-6.61,0.06-9.92,0.04
	c-1.92-0.01-3.42-0.71-3.44-2.88c-0.02-2.29,1.62-2.73,3.49-2.74c3.31,0,6.62-0.11,9.91,0.05c2.22,0.1,2.43-1.08,2.45-2.8
	c0.02-1.8-0.4-2.88-2.51-2.8c-3.21,0.11-6.42,0.04-9.63,0.04c-1.89,0-3.59-0.59-3.66-2.68c-0.08-2.2,1.53-3.05,3.6-3.04
	c3.12,0.01,6.24-0.1,9.35,0.05c2.01,0.09,2.89-0.4,2.89-2.62c0-2.27-0.82-2.98-3.01-2.88c-3.02,0.15-6.04,0.03-9.06,0.05
	c-1.98,0.01-3.79-0.46-3.79-2.8c0-2.27,1.71-2.91,3.74-2.89c3.21,0.02,6.42-0.04,9.63,0.03c1.64,0.04,2.37-0.52,2.46-2.26
	c0.12-2.32-0.41-3.69-3.09-3.29c-0.83,0.12-1.9,0.32-2.5-0.08c-1.06-0.69-2.37-1.72-2.54-2.78c-0.12-0.74,1.35-2.02,2.37-2.56
	c0.82-0.44,2.04-0.25,3.06-0.14c2.24,0.23,2.73-0.92,2.71-2.88c-0.02-1.83-0.49-2.73-2.59-2.71c-7.17,0.05-14.35,0-21.52-0.2
	c-2.7-0.08-3.69,0.8-3.64,3.56C34.47,105.87,34.38,113.14,34.37,120.42z M124.74,132.46c2.69-1,4.54-4.15,4.09-7.42
	c-0.49-3.61-4.31-7.37-7.72-7.59c-3.83-0.26-7.56,2.49-8.63,6.36c-1.06,3.81,0.69,7.54,3.9,9.24c1.78-1.58,3.39-3.01,5-4.44
	C122.42,129.79,123.46,130.98,124.74,132.46z M81.52,34.35c0-0.08,0-0.16,0-0.24c1.89,0,3.78-0.04,5.66,0.01
	c1.8,0.05,2.86-0.49,2.85-2.55c-0.01-1.94-0.59-3.02-2.74-3.02c-3.68,0-7.36-0.03-11.02-0.28c-2.25-0.15-3.05,0.62-3,2.85
	c0.05,2.05,0.22,3.56,2.9,3.26C77.93,34.19,79.73,34.35,81.52,34.35z M85.42,23.2c0-0.37-0.01-0.73-0.01-1.1
	c-2.4-2.44-4.77-2.78-6.85-0.93c-0.31,0.28-0.64,0.79-0.59,1.14c0.05,0.33,0.57,0.84,0.89,0.85C81.05,23.24,83.23,23.2,85.42,23.2z"
	/>
<path class="st0" d="M78.9,92.64c0,14.06,0,28.13,0.01,42.19c0,2.15,0.02,4.73-2.79,4.6c-2.56-0.12-2.75-2.58-2.74-4.79
	c0.04-12.84,0.02-25.67,0.02-38.51c0-14.73,0-29.45,0-44.18c0-0.76,0.03-1.51,0-2.27c-0.08-2.09,0.59-4.13,2.77-4.22
	c2.39-0.09,2.75,2.09,2.74,4.12C78.9,62.72,78.9,75.84,78.9,88.96C78.9,90.18,78.9,91.41,78.9,92.64z"/>
<path class="st0" d="M84.6,96.38c0-12.66,0-25.32,0-37.98c0-0.94-0.21-2.03,0.18-2.79c0.45-0.88,1.47-2.06,2.22-2.05
	c0.95,0.02,2.04,0.97,2.77,1.78c0.4,0.45,0.25,1.44,0.25,2.19c0.01,25.98,0.01,51.96,0,77.94c0,0.75,0.17,1.72-0.22,2.2
	c-0.7,0.87-1.78,2.02-2.66,1.99c-0.84-0.03-1.87-1.29-2.38-2.24c-0.4-0.74-0.16-1.85-0.16-2.79C84.59,121.89,84.6,109.13,84.6,96.38
	z"/>
</svg>
