<?xml version="1.0" encoding="utf-8"?>
<!-- Generator: Adobe Illustrator 26.0.3, SVG Export Plug-In . SVG Version: 6.00 Build 0)  -->
<svg version="1.1" id="Capa_1" xmlns="http://www.w3.org/2000/svg" xmlns:xlink="http://www.w3.org/1999/xlink" x="0px" y="0px"
	 viewBox="0 0 160 160" style="enable-background:new 0 0 160 160;" xml:space="preserve">
<style type="text/css">
	.st0{fill:#FFFFFF;}
</style>
<path class="st0" d="M19.79,82.03c-1.38,0.68-2.33,1.16-3.28,1.63c-1.97,0.97-3.39,0.27-3.46-1.92c-0.12-3.67-0.19-7.36,0.05-11.02
	c0.07-1.03,1.05-2.35,1.99-2.92c9.6-5.88,19.29-11.64,28.94-17.44c5.14-3.09,10.29-6.15,15.38-9.31c1.53-0.95,2.89-1.11,4.44-0.1
	c1.87,1.22,3.77,2.44,5.78,3.39c0.83,0.39,2.22,0.48,2.97,0.04c8.67-5.11,17.35-10.21,25.85-15.6c3.48-2.2,6.06-2.92,10.08-0.36
	c13.73,8.76,27.84,16.93,41.82,25.28c1.48,0.88,2.12,2.01,2.09,3.71c-0.07,3.2-0.01,6.4-0.03,9.59c-0.02,3.1-1.33,3.83-4.06,2.37
	c-0.72-0.38-1.58-0.5-2.37-0.74c-0.13,0.83-0.36,1.67-0.36,2.5c-0.01,14.87,0.02,29.75,0.02,44.62c0,2.68-0.74,3.32-3.77,3.32
	c-11.67,0-23.35,0-35.02-0.01c-3.06,0-3.22,0.16-3.21,3.28c0.01,2.48,0.05,4.96,0,7.44c-0.05,2.49-1.06,3.43-3.58,3.43
	c-25.51,0-51.02-0.01-76.52-0.03c-2.91,0-3.57-0.73-3.56-3.78c0.01-15.03,0.02-30.07,0.03-45.1C19.99,83.77,19.9,83.22,19.79,82.03z
	 M47.57,119.25v-0.01c6.88,0,13.75-0.05,20.63,0.03c2.04,0.02,2.83-0.64,2.8-2.78c-0.11-7.12-0.06-14.23-0.05-21.35
	c0-2.86,1.04-3.92,3.88-3.93c5.2-0.02,10.39-0.02,15.59,0c3.1,0.01,3.98,0.92,3.98,4.02c0,7.12,0.03,14.23-0.04,21.35
	c-0.02,1.77,0.46,2.71,2.4,2.71c1.89,0,2.43-0.79,2.42-2.65c-0.09-11.67-0.11-23.35-0.04-35.02c0.01-1.85-0.57-2.96-2.12-3.88
	C85.9,71.13,74.79,64.51,63.73,57.79c-1.56-0.95-2.75-0.82-4.17,0.08c-3.38,2.12-6.79,4.2-10.22,6.25
	c-7.47,4.47-14.94,8.94-22.45,13.34c-1.92,1.13-2.67,2.54-2.64,4.85c0.13,11.35,0.11,22.71,0.01,34.06
	c-0.02,2.28,0.8,2.93,2.93,2.91C33.98,119.2,40.77,119.25,47.57,119.25z M85.72,53.92c0.76,0.53,1.07,0.77,1.4,0.97
	c6.85,4.09,13.67,8.25,20.59,12.23c2.05,1.18,3.03,2.53,2.86,4.94c-0.19,2.79,0.06,5.6-0.1,8.39c-0.07,1.18-0.35,2.83-1.14,3.34
	c-0.68,0.44-2.22-0.4-3.37-0.7c-0.59-0.16-1.17-0.37-1.75-0.56c-0.2,0.64-0.56,1.28-0.57,1.92c-0.05,4.72-0.02,9.44-0.02,14.16
	c0,6.74,0,6.64,6.71,6.74c2.41,0.04,2.99-0.88,2.95-3.1c-0.12-7.04-0.07-14.07-0.06-21.11c0.01-3.3,0.62-3.86,3.97-3.85
	c4.96,0.01,9.92,0.01,14.88,0c3.36-0.01,4.12,0.71,4.12,4.05c0.01,6.96,0.02,13.92-0.03,20.87c-0.01,1.75-0.02,3.13,2.41,3.16
	c2.54,0.03,2.54-1.4,2.53-3.26c-0.04-11.52-0.05-23.03,0.02-34.55c0.01-1.75-0.6-2.78-2.08-3.66c-11.25-6.7-22.45-13.49-33.73-20.15
	c-0.81-0.48-2.36-0.47-3.18-0.01c-4.95,2.77-9.79,5.74-14.65,8.67C86.92,52.73,86.46,53.27,85.72,53.92z M18.11,77.52
	c1.04-0.64,1.91-1.17,2.78-1.69c12.79-7.7,25.59-15.38,38.36-23.12c1.71-1.03,3.18-1.09,4.88-0.06C75.73,59.7,87.36,66.7,98.99,73.7
	c2.07,1.24,4.19,2.4,6.33,3.62c1.26-3.59,0.83-5.69-1.15-6.88c-12.59-7.56-25.26-15.02-37.73-22.79c-3.3-2.06-6-2.97-9.09-0.05
	c-0.68,0.64-1.64,0.98-2.46,1.47C43.6,55.84,32.32,62.64,21,69.37C17.3,71.56,16.73,72.82,18.11,77.52z M117.6,98.3
	c0,4.64,0.04,9.28-0.02,13.92c-0.02,1.68,0.46,2.5,2.32,2.42c3.12-0.12,6.24-0.1,9.36,0c1.76,0.06,2.44-0.6,2.44-2.36
	c-0.04-9.36-0.05-18.72,0-28.08c0.01-1.68-0.66-2.3-2.27-2.28c-3.12,0.04-6.24,0.1-9.36-0.02c-1.88-0.07-2.55,0.58-2.51,2.48
	C117.67,89.02,117.6,93.66,117.6,98.3z M147.92,60.44c0.18-0.12,0.36-0.24,0.54-0.36c-0.78-1.23-1.27-2.93-2.38-3.61
	c-13.49-8.24-27.07-16.32-40.61-24.48c-1.25-0.75-2.23-0.76-3.5,0.03c-4.07,2.54-8.23,4.92-12.34,7.38
	c-3.98,2.38-7.95,4.76-11.9,7.18c-0.76,0.46-1.95,0.9-0.83,2.14c1.75,1.93,4.11,2.25,6.35,0.9c6.09-3.66,12.22-7.25,18.27-10.98
	c1.67-1.03,2.99-0.92,4.62,0.08c13.3,8.1,26.65,16.11,39.98,24.17c1.3,0.78,1.74,0.27,1.8-1.02
	C147.94,61.4,147.92,60.92,147.92,60.44z M89.83,112.35c0-4.71-0.04-9.42,0.02-14.14c0.02-1.72-0.57-2.45-2.37-2.39
	c-3.11,0.11-6.23,0.08-9.34,0c-1.84-0.05-2.54,0.63-2.52,2.52c0.07,9.18,0.08,18.37,0.01,27.55c-0.02,1.86,0.54,2.62,2.44,2.57
	c3.19-0.09,6.39-0.09,9.58,0c1.67,0.05,2.25-0.56,2.22-2.23C89.79,121.62,89.84,116.98,89.83,112.35z M47.87,128.45
	c6.71,0,13.42-0.01,20.13,0.01c1.6,0,3.02,0.07,3.04-2.27c0.02-2.41-1.4-2.44-3.14-2.44c-6.23,0.03-12.46-0.01-18.69-0.01
	c-7.43,0-14.85,0.04-22.28,0.03c-1.52,0-2.61,0.22-2.69,2.16c-0.09,2.14,0.98,2.55,2.79,2.54
	C33.97,128.43,40.92,128.45,47.87,128.45z M108.63,109.84c0-0.01,0-0.03,0-0.04c-0.87,0-1.75,0.06-2.62-0.01
	c-1.75-0.15-2.45,0.62-2.44,2.36c0.01,1.63,0.47,2.59,2.31,2.5c1.67-0.09,3.34-0.1,5.01-0.02c1.81,0.08,2.34-0.82,2.36-2.47
	c0.02-1.78-0.77-2.46-2.48-2.32C110.07,109.89,109.35,109.84,108.63,109.84z M138.61,114.59c1.66,0.16,2.5-0.47,2.54-2.28
	c0.04-1.91-0.8-2.51-2.59-2.5c-1.73,0.01-2.44,0.68-2.41,2.42C136.17,113.95,136.85,114.78,138.61,114.59z M99.1,126.21
	c0.19-1.75-0.6-2.47-2.35-2.47c-1.75-0.01-2.4,0.73-2.42,2.46c-0.02,1.89,0.96,2.3,2.56,2.29C98.44,128.46,99.38,127.96,99.1,126.21
	z"/>
</svg>
