<?xml version="1.0" encoding="utf-8"?>
<!-- Generator: Adobe Illustrator 26.0.3, SVG Export Plug-In . SVG Version: 6.00 Build 0)  -->
<svg version="1.1" id="Capa_1" xmlns="http://www.w3.org/2000/svg" xmlns:xlink="http://www.w3.org/1999/xlink" x="0px" y="0px"
	 viewBox="0 0 160 160" style="enable-background:new 0 0 160 160;" xml:space="preserve">
<style type="text/css">
	.st0{fill:#FFFFFF;}
</style>
<path class="st0" d="M80.64,66.56c7.12,0,14.24-0.08,21.35,0.05c2.1,0.04,2.56-0.71,2.53-2.62c-0.09-6.56-0.05-13.12-0.04-19.68
	c0.01-6.59,3.32-9.92,9.8-9.92c2.32,0,4.67,0.22,6.95-0.05c4.82-0.56,8.39,4.22,8.79,7.78c0.08,0.71,0.2,1.44,0.15,2.15
	c-0.13,1.95,0.89,2.46,2.64,2.49c1.98,0.04,4,0.11,5.94,0.5c3.95,0.8,6.64,3.73,7.01,7.74c0.27,2.94,0.28,5.91,0.2,8.87
	c-0.05,2.03,0.54,2.83,2.72,2.83c1.76,0,3.65,0.45,5.25,1.19c2.41,1.11,3.68,3.08,3.54,5.96c-0.18,3.59-0.04,7.2-0.04,10.8
	c-0.01,4.28-2.92,7.33-7.22,7.57c-0.48,0.03-0.97,0.07-1.44,0c-2.31-0.34-2.99,0.81-2.85,2.92c0.11,1.67,0.11,3.36,0.06,5.04
	c-0.19,6.58-3.87,10.18-10.45,10.13c-6.36-0.05-5.34,0.11-5.33,5.27c0,2.8-0.64,5.38-2.59,7.5c-1.52,1.66-3.29,2.67-5.67,2.56
	c-2.79-0.13-5.6-0.04-8.4-0.03c-5.53,0.01-8.98-3.3-9.04-8.86c-0.07-7.12-0.02-14.24-0.02-21.36c0-3.16-0.03-3.15-3.26-3.14
	c-14.06,0-28.14,0.03-42.22-0.03c-2.03-0.01-2.65,0.72-2.63,2.67c0.08,6.8,0.09,13.6,0.03,20.4c-0.03,3.43-0.55,6.83-3.7,8.9
	c-1.2,0.79-2.78,1.25-4.22,1.35c-2.87,0.2-5.79-0.23-8.63,0.12c-5.44,0.65-8.97-4.34-9.38-8.81c-0.32-3.47-0.3-3.55-3.89-3.44
	c-4.88,0.16-9.02-1.17-10.93-6.02c-0.76-1.92-0.54-4.23-0.74-6.36c-0.06-0.63,0.01-1.28-0.01-1.92c-0.06-1.67,0.46-3.81-0.39-4.86
	c-0.75-0.93-3-0.68-4.6-0.9c-4.05-0.55-7.28-4.13-7.32-8.19c-0.02-2.8,0.24-5.63-0.06-8.39c-0.5-4.53,4.44-9.05,8.77-8.9
	c3.66,0.13,3.66-0.02,3.66-3.69c0-1.76-0.03-3.52,0.03-5.28c0.19-5.21,4.01-8.94,9.23-9.05c5.99-0.13,6.02-0.13,6.22-6.15
	c0.15-4.58,3.98-10.05,9.67-9.37c2.6,0.31,5.27,0.04,7.91,0.05c3.95,0.02,7.46,2.71,7.88,6.63c0.45,4.2,0.42,8.45,0.5,12.68
	c0.07,3.44,0.1,6.88-0.03,10.32c-0.07,2.02,0.73,2.65,2.67,2.63c7.2-0.07,14.4-0.03,21.6-0.03C80.64,66.59,80.64,66.58,80.64,66.56z
	 M124.91,80.12c0-11.83,0-23.66,0-35.49c0-3.63-1.62-5.23-5.27-5.26c-1.6-0.01-3.2-0.02-4.8,0c-3.3,0.04-5.25,1.91-5.25,5.17
	c-0.02,23.74-0.02,47.48,0,71.21c0,3,1.95,4.92,4.92,5c1.52,0.04,3.04,0,4.56,0.01c4.32,0.04,5.84-1.48,5.84-5.89
	C124.91,103.3,124.91,91.71,124.91,80.12z M50.69,80.13c0-11.03-0.11-22.06,0.04-33.09c0.1-7.09-0.59-7.84-7.65-7.69
	c-6.1,0.13-7.15,1.08-7.04,7.12c0.01,0.4,0.03,0.8,0.03,1.2c0,13.82-0.01,27.64-0.01,41.46c0,9.03-0.02,18.06,0.04,27.08
	c0.02,2.97,1.66,4.49,4.69,4.55c1.68,0.03,3.36,0.02,5.03,0.01c3.7-0.03,4.85-1.19,4.86-4.91C50.69,103.94,50.69,92.04,50.69,80.13z
	 M80.6,72.03c-7.19,0-14.38,0.05-21.56-0.03c-1.99-0.02-2.72,0.67-2.66,2.65c0.1,3.27,0.09,6.55,0.01,9.82
	c-0.05,1.88,0.72,2.49,2.56,2.48c14.38-0.05,28.75-0.06,43.13,0.01c1.95,0.01,2.49-0.71,2.44-2.52c-0.09-3.27-0.1-6.55,0-9.82
	c0.06-1.94-0.56-2.66-2.6-2.63C94.81,72.1,87.7,72.03,80.6,72.03z M130.2,78.48c0,7.91,0.04,15.81-0.03,23.72
	c-0.02,1.93,0.62,2.85,2.61,2.74c1.19-0.07,2.4,0.06,3.59-0.04c2.41-0.19,4.29-2.02,4.29-4.32c0.02-14.69,0.02-29.39-0.03-44.08
	c-0.01-2.32-1.74-4-4.09-4.18c-1.11-0.08-2.25,0.08-3.35-0.05c-2.32-0.28-3.07,0.66-3.04,2.97C130.27,62.99,130.2,70.74,130.2,78.48
	z M30.45,81.68c0-7.35,0-14.69,0-22.04c0-4.39,0-4.39-4.36-4.41c-4.47-0.02-5.74,1.23-5.74,5.63c0,13.18,0.01,26.35,0.01,39.53
	c0,7.04,0.2,7.13,7.22,7.5c2.48,0.13,2.96-0.77,2.93-2.98C30.39,97.17,30.45,89.42,30.45,81.68z M14.93,80.63
	c0-1.76,0.12-3.53-0.06-5.27c-0.07-0.73-0.61-1.78-1.2-2.02c-2.69-1.07-5.78,0.81-6.02,3.71c-0.2,2.38-0.29,4.83,0.06,7.18
	c0.18,1.25,1.15,2.77,2.22,3.39c1.09,0.62,2.82,0.58,4.09,0.22c0.54-0.15,0.78-1.86,0.88-2.89C15.04,83.52,14.93,82.07,14.93,80.63z
	 M153.69,78.8c-0.29-1.25-0.5-3.17-1.21-4.88c-0.9-2.2-3.08-2.05-4.97-1.83c-1.99,0.23-1.47,1.96-1.49,3.23
	c-0.05,3.1,0,6.21-0.03,9.32c-0.02,1.55,0.51,2.34,2.22,2.34c2.83-0.01,4.14-0.77,4.91-3.5C153.48,82.19,153.46,80.81,153.69,78.8z"
	/>
</svg>
