<?xml version="1.0" encoding="utf-8"?>
<!-- Generator: Adobe Illustrator 26.0.3, SVG Export Plug-In . SVG Version: 6.00 Build 0)  -->
<svg version="1.1" id="Capa_1" xmlns="http://www.w3.org/2000/svg" xmlns:xlink="http://www.w3.org/1999/xlink" x="0px" y="0px"
	 viewBox="0 0 160 160" style="enable-background:new 0 0 160 160;" xml:space="preserve">
<style type="text/css">
	.st0{fill:#FFFFFF;}
</style>
<g>
	<path class="st0" d="M79.94,144.04c-19.97,0-39.94,0-59.91,0c-3.56,0-3.98-0.41-3.99-3.88c-0.01-2.2,0.01-4.4-0.01-6.6
		c-0.02-1.8,0.85-3.08,2.59-3.17c2.27-0.12,2.26-1.43,2.26-3.09c-0.03-21.32,0.08-42.65-0.1-63.97c-0.05-5.5,3.34-9.22,9.08-8.98
		c5.32,0.22,10.66,0.08,15.99,0.09c3.32,0.01,3.48-0.16,3.48-3.39c0-8.55,0.23-17.1-0.1-25.63c-0.2-5.24,4.02-9.61,9.43-9.49
		c14.55,0.31,29.1,0.1,43.66,0.11c5.4,0,8.79,3.4,8.8,8.85c0.01,8.88,0.06,17.77-0.05,26.65c-0.03,2.23,0.71,3,2.92,2.95
		c5.5-0.12,11-0.05,16.5-0.09c6.21-0.05,8.99,2.68,8.99,8.92c0,21.32,0.01,42.65-0.04,63.97c0,1.77,0.22,2.93,2.34,3.05
		c1.64,0.09,2.22,1.22,2.17,2.84c-0.08,2.62-0.14,5.25,0.01,7.87c0.14,2.35-0.79,3.07-3.09,3.05c-11.51-0.09-23.01-0.04-34.52-0.04
		C97.54,144.04,88.74,144.04,79.94,144.04z M106.17,76.49c0-17.09,0-34.18,0-51.26c0-3.12-0.78-3.92-3.89-3.92
		c-14.72-0.01-29.44-0.01-44.16,0c-3,0-3.97,0.99-3.97,3.93c0.01,32.91,0.01,65.81,0.02,98.72c0,6.21,0,6.12,6.32,6.32
		c2.35,0.08,3.11-0.67,3.09-3.02c-0.1-10.15-0.05-20.3-0.05-30.45c0-3.74,0.77-4.54,4.4-4.54c8.29-0.01,16.58-0.01,24.87,0
		c3.3,0,4.18,0.9,4.18,4.23c0,9.22,0,18.44,0,27.66c0,6.02,0,6.02,6,6.07c3.2,0.03,3.2,0.03,3.2-3.24
		C106.17,110.16,106.16,93.33,106.17,76.49z M111.11,94.8c0,10.92,0.02,21.84-0.02,32.75c-0.01,1.68,0.24,2.75,2.3,2.73
		c6.35-0.08,12.69-0.07,19.04-0.02c1.9,0.01,2.49-0.79,2.4-2.64c-0.13-2.87-0.13-5.76,0.01-8.63c0.1-2.08-0.59-2.92-2.73-2.85
		c-3.47,0.12-6.94,0.01-10.41,0.05c-1.9,0.02-3.66-0.55-3.6-2.61c0.07-1.97,1.92-2.27,3.65-2.26c3.39,0.03,6.77-0.06,10.16,0.04
		c2.15,0.07,3.1-0.64,2.93-2.94c-0.19-2.61-0.09-5.24-0.06-7.87c0.04-3.27-0.06-3.38-3.4-3.38c-3.47,0-6.95,0.17-10.4-0.1
		c-1.04-0.08-1.98-1.42-2.97-2.18c0.97-0.87,1.88-1.86,2.96-2.57c0.48-0.31,1.32-0.06,2-0.06c3.22,0,6.43-0.01,9.65,0.01
		c1.58,0.01,2.29-0.61,2.22-2.29c-0.12-2.7-0.09-5.42-0.06-8.12c0.04-3.6,0.02-3.64-3.66-3.61c-3.38,0.03-6.79,0.21-10.14-0.11
		c-1.06-0.1-1.98-1.61-2.97-2.48c0.98-0.79,1.9-1.69,2.97-2.32c0.51-0.3,1.32-0.07,2-0.07c3.22,0,6.43-0.01,9.65,0.01
		c1.57,0.01,2.29-0.59,2.2-2.29c-0.13-2.53-0.06-5.08-0.04-7.61c0.02-3.24-0.8-4.13-3.97-4.14c-5.67-0.02-11.34,0.06-17.01-0.05
		c-2.16-0.04-2.75,0.8-2.73,2.85C111.14,72.97,111.11,83.89,111.11,94.8z M49.33,94.89c0-10.83-0.06-21.66,0.04-32.48
		c0.02-2.45-0.78-3.27-3.22-3.2c-5.49,0.14-11,0.03-16.49,0.04c-3.1,0.01-3.86,0.79-3.87,3.93c0,2.2,0.01,4.4,0.01,6.6
		c0,3.54-0.01,3.54,3.42,3.53c3.3-0.01,6.6-0.05,9.9,0c1.64,0.03,3.23,0.6,3.21,2.49c-0.01,1.87-1.56,2.42-3.23,2.5
		c-0.59,0.03-1.18,0.01-1.78,0.01c-3.05-0.02-6.09,0.04-9.13-0.08c-1.77-0.07-2.46,0.6-2.42,2.34c0.06,3.13,0.08,6.26-0.01,9.39
		c-0.05,1.75,0.59,2.42,2.37,2.37c3.38-0.1,6.77-0.02,10.15-0.05c1.88-0.02,3.95,0.14,4.01,2.43c0.07,2.37-2.01,2.53-3.89,2.52
		c-3.38-0.03-6.77,0.06-10.15-0.06c-1.93-0.07-2.54,0.74-2.5,2.55c0.08,2.96,0.11,5.92-0.01,8.88c-0.08,2.05,0.57,2.91,2.75,2.82
		c3.46-0.16,6.93-0.07,10.4-0.06c1.72,0.01,3.52,0.36,3.43,2.45c-0.09,1.93-1.74,2.44-3.54,2.42c-3.55-0.04-7.11,0.04-10.66-0.06
		c-1.79-0.05-2.41,0.64-2.37,2.37c0.08,3.04,0.12,6.09,0,9.13c-0.08,2,0.64,2.66,2.64,2.63c5.92-0.11,11.84-0.13,17.76,0
		c2.41,0.06,3.25-0.66,3.22-3.17C49.26,116.37,49.33,105.63,49.33,94.89z M91.98,113.57c0-4.48-0.09-8.97,0.04-13.45
		c0.06-2.19-0.68-3.01-2.92-2.97c-6.01,0.11-12.01,0.09-18.02,0c-1.72-0.02-2.54,0.51-2.53,2.27c0.02,9.56,0.01,19.12,0,28.68
		c0,1.62,0.7,2.21,2.33,2.19c6.09-0.07,12.18-0.11,18.27-0.01c2.27,0.04,2.92-0.84,2.86-3.01
		C91.89,122.71,91.98,118.14,91.98,113.57z M80.12,139.87c18.87,0,37.75-0.03,56.62,0.04c1.85,0.01,2.63-0.5,2.65-2.39
		c0.02-1.85-0.63-2.48-2.55-2.46c-11.43,0.09-22.85,0.06-34.28,0.06c-26.24,0-52.48,0-78.71,0c-2.71,0-3.24,0.64-2.92,3.05
		c0.27,2.05,1.77,1.7,3.07,1.7C42.71,139.87,61.41,139.87,80.12,139.87z"/>
	<path class="st0" d="M69.96,48.95c-6.96,0.03-5.58,0.32-5.66-5.64c-0.05-3.69-0.02-3.69,3.56-3.69c1.69,0,3.39-0.11,5.07,0.05
		c2.09,0.19,2.69-0.76,2.59-2.67c-0.1-2.11,0-4.23-0.06-6.34c-0.04-1.48,0.51-2.18,2.07-2.14c8.6,0.27,7.14-1.67,7.26,6.77
		c0.06,4.32,0,4.33,4.3,4.32c1.27,0,2.55,0.12,3.8-0.03c2.3-0.28,3.13,0.52,3.1,2.92c-0.1,6.44,0,6.44-6.39,6.44
		c-4.81,0-4.81,0-4.8,4.79c0.02,6.4,0.01,6.31-6.46,6.4c-2.24,0.03-3.07-0.69-2.89-2.91c0.15-1.85-0.06-3.72,0.08-5.57
		c0.16-2.13-0.68-2.96-2.78-2.73C71.83,49.03,70.89,48.94,69.96,48.95z"/>
</g>
</svg>
