<?xml version="1.0" encoding="utf-8"?>
<!-- Generator: Adobe Illustrator 26.0.3, SVG Export Plug-In . SVG Version: 6.00 Build 0)  -->
<svg version="1.1" id="Capa_1" xmlns="http://www.w3.org/2000/svg" xmlns:xlink="http://www.w3.org/1999/xlink" x="0px" y="0px"
	 viewBox="0 0 160 160" style="enable-background:new 0 0 160 160;" xml:space="preserve">
<style type="text/css">
	.st0{fill:#FFFFFF;}
</style>
<g>
	<path class="st0" d="M81.59,13.11c12.83,0,25.67,0.04,38.5-0.05c2.05-0.01,2.6,0.71,2.57,2.62c-0.08,5.13-0.08,10.27,0,15.4
		c0.03,1.94-0.64,2.7-2.64,2.59c-2.82-0.15-5.67-0.19-8.49,0.02c-0.83,0.06-2.06,1-2.26,1.77c-0.41,1.54,0.73,2.12,2.23,2.11
		c6.02-0.04,12.04,0.04,18.06-0.08c2.11-0.04,2.6,0.77,2.81,2.79c0.57,5.69-1.04,10.55-4.38,15.11c-1,1.36-1.4,3.44-1.41,5.2
		c-0.1,16.46-0.08,32.93-0.02,49.39c0.01,2.18-0.45,3.3-2.93,3.22c-2.24-0.07-2.55-1.14-2.55-3.04c0.06-15.05,0.03-30.09,0.04-45.14
		c0-4.53,0-4.52-4.41-4.52c-23.63,0-47.27,0-70.9-0.01c-3.64,0-3.64,0-3.64,3.7c0.01,15.4-0.04,30.8,0.07,46.2
		c0.02,2.36-0.94,2.77-2.99,2.83c-2.45,0.07-2.19-1.44-2.19-2.97c0.01-16.64,0.05-33.28-0.06-49.92c-0.01-1.63-0.51-3.69-1.57-4.81
		c-4.4-4.64-4.68-10.2-4.33-16.04c0.1-1.77,1.15-1.95,2.5-1.94c5.4,0.01,10.8,0.01,16.2,0.02c1.41,0,3.05,0.32,3.01-1.89
		c-0.05-2.2-1.6-2.13-3.21-2.07c-2.21,0.08-4.43-0.01-6.64,0.06c-1.78,0.06-2.57-0.62-2.54-2.49c0.09-5.04,0.15-10.09,0.03-15.13
		c-0.06-2.41,0.94-2.97,3.17-2.96C56.28,13.15,68.93,13.11,81.59,13.11z M81.87,42.38c-14.17,0-28.33,0-42.5,0
		c-0.53,0-1.17-0.17-1.57,0.07c-0.59,0.35-1.44,1.04-1.4,1.51c0.07,0.68,0.72,1.45,1.34,1.88c0.42,0.29,1.2,0.08,1.82,0.08
		c11.69-0.01,23.38,0.01,35.06-0.05c1.86-0.01,2.52,0.71,2.49,2.51c-0.03,1.75-0.36,2.8-2.51,2.78
		c-10.71-0.09-21.43-0.08-32.14-0.02c-1,0.01-1.99,0.57-2.99,0.87c0.77,1.02,1.41,2.18,2.36,2.99c0.5,0.42,1.52,0.31,2.3,0.31
		c25.32,0.02,50.65,0.04,75.97-0.01c0.83,0,1.97-0.45,2.43-1.09c1.56-2.13,3.06-4.35,4.26-6.7c1.7-3.34,0.48-5.13-3.23-5.12
		C109.67,42.39,95.77,42.39,81.87,42.38z M81.48,28.72c11.06,0,22.12,0,33.19,0c3.76,0,3.76,0.01,3.76-3.86
		c-0.01-6.68-0.01-6.68-6.71-6.68c-21.42,0-42.83,0.01-64.25-0.05c-1.95-0.01-2.77,0.51-2.62,2.54c0.14,1.85,0.13,3.72-0.01,5.57
		c-0.15,2.05,0.73,2.53,2.65,2.52C58.82,28.69,70.15,28.73,81.48,28.72z M80.78,37.55L80.78,37.55c6.8-0.01,13.6-0.04,20.4,0.01
		c1.73,0.01,3-0.56,2.46-2.36c-0.22-0.74-1.78-1.51-2.74-1.52c-13.42-0.1-26.84-0.06-40.27-0.1c-1.38,0-2.47,0.02-2.49,1.83
		c-0.01,1.78,0.86,2.18,2.5,2.17C67.35,37.51,74.07,37.55,80.78,37.55z"/>
	<path class="st0" d="M81.78,146.91c-20,0-40,0-60-0.01c-1.37,0-2.93,0.35-3.02-1.91c-0.08-2,0.56-2.95,2.69-2.9
		c4.33,0.09,8.67-0.02,13.01,0.07c1.95,0.04,2.63-0.69,2.66-2.64c0.05-2.61-0.19-4.56-2.96-6.06c-4.04-2.18-5.49-7.23-3.83-11
		c2-4.55,6.94-7.17,11.45-6.06c5.84,1.44,8.68,9.33,5.11,14.41c-0.85,1.21-2.17,2.08-3.08,3.25c-0.71,0.91-1.51,2.03-1.59,3.11
		c-0.34,4.95-0.25,4.96,4.78,4.96c5.13,0,10.27-0.09,15.4,0.05c2.21,0.06,2.99-0.67,2.96-2.87c-0.1-6.02,0.04-12.04-0.08-18.05
		c-0.05-2.18,0.64-3.01,2.86-2.99c9.03,0.07,18.05,0.05,27.08-0.02c1.96-0.01,2.67,0.74,2.65,2.68c-0.08,6.1,0.02,12.21-0.11,18.32
		c-0.05,2.22,0.75,2.96,2.93,2.93c6.02-0.1,12.04-0.09,18.05,0.01c1.75,0.03,2.33-0.62,2.42-2.29c0.15-2.83-0.24-5.08-2.72-7.19
		c-4.53-3.86-4.46-9.32-0.71-13.59c2.59-2.94,5.74-3.52,9.13-2.48c3.83,1.18,6.31,3.95,6.83,8.02c0.49,3.79-1.24,6.72-4.3,8.82
		c-2.62,1.81-3.87,4.5-2.76,7.29c0.27,0.68,1.6,1.29,2.46,1.31c4.33,0.12,8.67,0.1,13.01-0.01c1.98-0.05,2.62,0.72,2.65,2.65
		c0.03,2.1-1.1,2.21-2.7,2.21C121.96,146.9,101.87,146.91,81.78,146.91C81.78,146.92,81.78,146.92,81.78,146.91z M93.63,132.97
		c0-1.06,0.01-2.12,0-3.18c-0.06-7.28,1.14-6.22-6.87-6.39c-1.71-0.04-2.38,0.78-2.36,2.42c0.04,3.27,0.02,6.54,0.03,9.82
		c0.03,7.66-0.86,6.38,7.01,6.49c1.57,0.02,2.24-0.72,2.22-2.27C93.61,137.57,93.64,135.27,93.63,132.97z M69.86,132.6
		c0.01,0,0.01,0,0.02,0c0,1.06-0.01,2.12,0,3.19c0.09,7.62-1.06,6.14,6.51,6.36c1.89,0.06,2.78-0.61,2.75-2.6
		c-0.06-4.51,0.01-9.03-0.04-13.54c-0.01-0.67-0.27-1.89-0.5-1.91c-2.74-0.23-5.49-0.32-8.23-0.29c-0.18,0-0.48,1.23-0.5,1.89
		C69.82,128,69.86,130.3,69.86,132.6z M43.8,125.76c0.02-2.99-1.42-4.56-4.22-4.59c-2.54-0.03-4.89,2.18-4.86,4.57
		c0.03,2.28,2.3,4.4,4.75,4.42C42.4,130.19,43.78,128.79,43.8,125.76z M123.86,121.26c-2.94,0.03-4.17,1.37-4.17,4.53
		c0.01,3.02,1.45,4.49,4.33,4.4c2.76-0.09,4.76-2.1,4.66-4.7C128.59,123.02,126.56,121.23,123.86,121.26z"/>
	<path class="st0" d="M86.89,83.26c2.41-0.49,2.24,1.09,2.32,2.68c0.1,1.98-0.65,2.56-2.61,2.52c-1.97-0.04-2.81-0.54-2.85-2.68
		C83.71,83.27,85.02,83.02,86.89,83.26z"/>
	<path class="st0" d="M52.46,83.25c2.2-0.43,2.52,0.81,2.54,2.59c0.02,1.91-0.63,2.66-2.64,2.61c-1.99-0.05-2.82-0.61-2.84-2.74
		C49.48,83.4,50.62,83.01,52.46,83.25z"/>
	<path class="st0" d="M111.79,85.89c0.31,2.05-0.69,2.56-2.61,2.56c-2.04-0.01-2.82-0.68-2.85-2.77c-0.03-2.37,1.29-2.4,3.06-2.5
		C111.56,83.05,112.05,84.06,111.79,85.89z"/>
	<path class="st0" d="M75,83.26c2.35-0.47,2.47,0.91,2.52,2.63c0.05,1.97-0.71,2.57-2.66,2.57c-2.11,0-2.71-0.78-2.76-2.8
		C72.03,83.27,73.26,83,75,83.26z"/>
	<path class="st0" d="M63.99,83.27c1.94-0.46,2.84,0.27,2.63,2.31c-0.14,1.33,0.39,3-1.96,2.85c-1.77-0.11-3.55,0.23-3.47-2.59
		C61.23,83.73,61.91,82.89,63.99,83.27z"/>
	<path class="st0" d="M64.03,99.56c-1.99,0.29-2.85-0.41-2.85-2.59c0-2.7,1.75-2.27,3.4-2.41c2.32-0.19,1.94,1.45,2.03,2.81
		C66.74,99.28,65.84,99.95,64.03,99.56z"/>
	<path class="st0" d="M52.47,99.57c-1.92,0.2-2.99-0.28-2.97-2.57c0.03-2.43,1.46-2.34,3.15-2.45c2.06-0.13,2.3,1.04,2.34,2.65
		C55.02,99.02,54.34,99.91,52.47,99.57z"/>
	<path class="st0" d="M52.43,133.66c-2.04,0.25-2.91-0.5-2.89-2.49c0.02-2.09,0.98-2.65,2.94-2.73c2.16-0.09,2.51,0.97,2.5,2.72
		C54.98,133.03,54.31,134.05,52.43,133.66z"/>
	<path class="st0" d="M109.22,94.64c2.23-0.42,2.61,0.78,2.64,2.57c0.03,1.84-0.68,2.49-2.5,2.43c-1.77-0.06-3.06-0.17-3.02-2.52
		C106.37,94.9,107.38,94.33,109.22,94.64z"/>
	<path class="st0" d="M86.56,99.57c-2.02,0.28-2.83-0.5-2.81-2.64c0.02-2.45,1.52-2.23,3.17-2.37c2.35-0.2,2.22,1.28,2.29,2.85
		C89.3,99.41,88.27,99.86,86.56,99.57z"/>
	<path class="st0" d="M111.79,130.86c0.24,2.06-0.63,2.86-2.56,2.87c-1.99,0.01-2.89-0.73-2.89-2.81c-0.01-2.33,1.36-2.41,3.12-2.48
		C111.4,128.38,112.06,129.2,111.79,130.86z"/>
	<path class="st0" d="M95.02,85.62c-0.33-2.1,0.82-2.4,2.62-2.47c2.08-0.08,2.52,0.8,2.5,2.64c-0.02,1.82-0.44,2.68-2.51,2.68
		C95.46,88.47,94.77,87.59,95.02,85.62z"/>
	<path class="st0" d="M74.95,99.58c-1.74,0.18-2.85-0.17-2.86-2.35s0.91-2.65,2.88-2.7c2.11-0.05,2.54,0.91,2.55,2.72
		C77.53,99.11,76.78,99.88,74.95,99.58z"/>
	<path class="st0" d="M97.54,99.59c-1.99,0.29-2.61-0.66-2.6-2.56c0.01-2,0.93-2.46,2.77-2.51c2.18-0.06,2.37,1.1,2.42,2.79
		C100.18,99.24,99.29,99.83,97.54,99.59z"/>
	<path class="st0" d="M64.08,110.85c-1.96,0.31-2.86-0.35-2.91-2.52c-0.06-2.87,1.85-2.34,3.54-2.5c2.17-0.21,1.83,1.28,1.9,2.57
		C66.72,110.24,66.21,111.37,64.08,110.85z"/>
	<path class="st0" d="M74.95,110.85c-2.3,0.38-2.81-0.74-2.85-2.71c-0.05-2.53,1.58-2.15,3.17-2.3c2.14-0.2,2.21,1.05,2.24,2.61
		C77.55,110.38,76.87,111.33,74.95,110.85z"/>
	<path class="st0" d="M52.15,77.01c-1.9,0.25-2.63-0.49-2.67-2.52c-0.04-2.59,1.51-2.5,3.28-2.57c2.11-0.08,2.16,1.26,2.22,2.78
		C55.07,76.8,54,77.35,52.15,77.01z"/>
	<path class="st0" d="M64.02,77c-2,0.32-2.83-0.37-2.86-2.56c-0.05-2.92,1.88-2.4,3.57-2.51c2.41-0.16,1.74,1.66,1.87,2.94
		C66.79,76.8,65.83,77.43,64.02,77z"/>
	<path class="st0" d="M86.68,110.84c-2.34,0.37-2.91-0.72-2.92-2.72c-0.01-2.55,1.69-2.1,3.26-2.28c2.22-0.25,2.15,1.1,2.19,2.63
		C89.26,110.44,88.6,111.4,86.68,110.84z"/>
	<path class="st0" d="M52.31,105.93c2.03-0.4,2.68,0.48,2.68,2.28c-0.01,1.74-0.32,2.84-2.48,2.75c-1.82-0.08-3.03-0.25-3-2.54
		C49.53,106.24,50.48,105.56,52.31,105.93z"/>
	<path class="st0" d="M86.77,71.99c2.28-0.44,2.4,0.99,2.45,2.68c0.05,1.82-0.56,2.52-2.48,2.42c-1.83-0.1-3.02-0.28-2.99-2.6
		C83.77,72.21,84.89,71.77,86.77,71.99z"/>
	<path class="st0" d="M109.04,110.87c-2,0.28-2.66-0.65-2.7-2.57c-0.06-2.64,1.66-2.34,3.37-2.46c2.23-0.15,2.06,1.26,2.14,2.74
		C111.96,110.74,110.82,111.17,109.04,110.87z"/>
	<path class="st0" d="M100.07,108.14c0.2,1.81-0.22,2.86-2.4,2.83c-1.93-0.03-2.75-0.61-2.72-2.59c0.02-1.69,0.38-2.66,2.39-2.57
		C99.03,105.89,100.46,105.87,100.07,108.14z"/>
	<path class="st0" d="M74.85,77.01c-2.04,0.31-2.76-0.58-2.76-2.66c0.01-2.39,1.42-2.34,3.12-2.43c2.29-0.12,2.24,1.32,2.3,2.91
		C77.58,76.79,76.6,77.32,74.85,77.01z"/>
	<path class="st0" d="M109.2,76.99c-2.05,0.27-2.82-0.5-2.87-2.5c-0.05-2.57,1.51-2.49,3.3-2.56c2.13-0.09,2.15,1.22,2.21,2.75
		C111.94,76.76,110.97,77.42,109.2,76.99z"/>
	<path class="st0" d="M52.44,122.09c-1.89,0.24-2.92-0.39-2.91-2.56c0.01-2.26,1.42-2.18,2.98-2.28c1.88-0.12,2.48,0.75,2.48,2.49
		C54.99,121.5,54.34,122.4,52.44,122.09z"/>
	<path class="st0" d="M109.13,122.08c-1.85,0.24-2.77-0.41-2.79-2.46c-0.01-2.47,1.57-2.27,3.22-2.38c2.07-0.13,2.26,1.07,2.3,2.67
		C111.9,121.94,110.8,122.33,109.13,122.08z"/>
	<path class="st0" d="M100.07,74.47c0.27,1.93-0.56,2.66-2.53,2.62c-1.75-0.03-2.6-0.55-2.59-2.41c0.01-1.76,0.42-2.79,2.51-2.78
		C99.36,71.91,100.32,72.46,100.07,74.47z"/>
</g>
</svg>
