<?xml version="1.0" encoding="utf-8"?>
<!-- Generator: Adobe Illustrator 26.0.3, SVG Export Plug-In . SVG Version: 6.00 Build 0)  -->
<svg version="1.1" id="Capa_1" xmlns="http://www.w3.org/2000/svg" xmlns:xlink="http://www.w3.org/1999/xlink" x="0px" y="0px"
	 viewBox="0 0 160 160" style="enable-background:new 0 0 160 160;" xml:space="preserve">
<style type="text/css">
	.st0{fill:#FFFFFF;}
</style>
<g>
	<path class="st0" d="M84.72,97.83c0-1.86,0-3,0-4.15c-0.01-6.21-0.11-12.43,0.05-18.64c0.03-1.31,1.02-2.59,1.56-3.89
		c1.13,0.67,2.53,1.1,3.35,2.03c6.39,7.32,12.69,14.72,18.95,22.14c0.68,0.81,0.97,1.95,1.44,2.93c0.5-0.34,1.01-0.68,1.51-1.01
		c0.08-0.91,0.23-1.83,0.23-2.74c0.01-6.51-0.09-13.03,0.04-19.54c0.02-1.25,0.88-2.48,1.36-3.72c1.19,0.53,2.65,0.79,3.52,1.65
		c8.22,8.07,16.39,16.2,24.43,24.46c1.04,1.07,1.75,2.95,1.77,4.46c0.14,12.43,0.09,24.85,0.07,37.28
		c-0.01,3.77-0.54,4.23-4.42,4.23c-38.99,0-77.98,0-116.96,0c-3.74,0-4.59-0.8-4.6-4.58c-0.02-10.72,0.01-21.45-0.03-32.17
		c-0.01-2.16,0.58-3.58,2.87-4.26c0.81-0.24,1.79-1.59,1.83-2.48c0.54-12.01,0.93-24.03,1.36-36.04c0.14-3.8,0.46-7.61,0.37-11.41
		c-0.04-1.76-0.66-3.57-1.34-5.23c-0.87-2.12,0.34-3.09,1.9-3.14c5.9-0.16,11.82-0.19,17.72,0.05c2,0.08,2.62,1.55,1.39,3.48
		c-0.54,0.86-1.06,1.96-1.03,2.93c0.48,16.52,1.06,33.05,1.56,49.57c0.06,1.9,1.02,2.37,2.66,2.41c1.84,0.04,2.42-0.88,2.48-2.59
		c0.42-11.92,0.88-23.83,1.34-35.74c0.15-3.8,0.33-7.61,0.47-11.41c0.08-2.05,0.52-4.04-1.51-5.77c-1.31-1.12,0.06-2.92,2.56-3.02
		c3.6-0.15,7.21-0.06,10.82-0.06c2,0,4.03-0.14,6.01,0.1c2.42,0.29,2.85,1.68,1.56,3.73c-0.54,0.85-0.94,1.99-0.91,2.98
		c0.28,9.71,0.63,19.43,1.06,29.13c0.05,1.13,0.42,2.46,1.12,3.31c3.74,4.58,7.62,9.04,11.47,13.51
		C83.04,96.98,83.54,97.14,84.72,97.83z M116.26,78.54c-0.12,1.83-0.24,2.75-0.24,3.67c-0.01,7.01,0.07,14.03-0.05,21.04
		c-0.02,1.12-0.89,2.22-1.37,3.33c-1.07-0.56-2.43-0.88-3.17-1.73c-6.6-7.53-13.09-15.16-19.64-22.73
		c-0.64-0.74-1.46-1.33-2.56-2.31c-0.16,1.26-0.29,1.84-0.29,2.42c0.02,6.71,0.14,13.43,0.02,20.14c-0.03,1.41-0.94,2.79-1.44,4.19
		c-1.19-0.71-2.66-1.17-3.54-2.16c-6.35-7.22-12.57-14.55-18.85-21.82c-0.72-0.84-1.61-1.53-2.91-2.74
		c-0.18,1.49-0.34,2.23-0.34,2.98c0,6.61,0.04,13.23,0.04,19.84c0,3.59-0.58,4.14-4.21,4.14c-10.92-0.01-21.84,0.06-32.76-0.07
		c-2.79-0.03-3.69,0.96-3.64,3.68c0.13,7.41,0.04,14.83,0.05,22.24c0.01,6.02-1.03,5.89,6.05,5.95c2.56,0.02,3.28-0.95,3.19-3.4
		c-0.17-5.1-0.05-10.22-0.11-15.33c-0.03-2.63,1.22-3.9,3.81-3.91c3.41-0.01,6.81,0.02,10.22,0c2.73-0.02,4,1.18,3.93,4.03
		c-0.13,5.01,0.11,10.03-0.12,15.03c-0.13,2.9,1.03,3.58,3.66,3.57c27.96-0.06,55.91-0.05,83.87,0c2.22,0,2.98-0.7,2.96-2.95
		c-0.09-10.72,0.03-21.44-0.13-32.16c-0.02-1.49-0.88-3.26-1.9-4.4c-3.01-3.35-6.29-6.45-9.48-9.63
		C123.84,86.02,120.38,82.61,116.26,78.54z M39.33,89.24c-0.08,0-0.16,0-0.25,0c-0.28-5.79-0.62-11.59-0.84-17.38
		c-0.26-6.8-0.47-13.6-0.58-20.4c-0.04-2.56-1.03-3.72-3.64-3.38c-0.69,0.09-1.42,0.13-2.1,0.01c-3.18-0.58-3.99,1.16-4.09,3.88
		c-0.61,15.89-1.24,31.78-1.95,47.67c-0.1,2.22,0.85,2.83,2.8,2.79c2.6-0.05,5.21-0.13,7.8,0.03c2.34,0.15,2.94-0.91,2.86-3.03
		C39.25,96.04,39.33,92.64,39.33,89.24z M63.77,75.97c0.43-0.37,0.86-0.73,1.29-1.1c0.15-0.35,0.44-0.7,0.42-1.04
		c-0.27-7.81-0.56-15.62-0.9-23.43c-0.03-0.64-0.41-1.78-0.72-1.82c-2.46-0.26-4.98-0.6-7.38-0.23c-0.68,0.11-1.39,2.45-1.46,3.8
		c-0.73,15.81-1.33,31.64-2,47.45c-0.07,1.63,0.15,2.8,2.11,2.83c1.93,0.03,2.63-0.89,2.59-2.8c-0.09-4.01-0.02-8.02-0.03-12.03
		c0-4.31-0.14-8.63,0.05-12.93c0.05-1.21,1.04-2.39,1.6-3.58c1.05,0.64,2.29,1.1,3.11,1.96C63.15,73.79,63.35,74.98,63.77,75.97z
		 M44.09,129.47L44.09,129.47c-0.01-1.1-0.01-2.19-0.01-3.29c0-6.21,0-6.16-6.38-5.94c-2.06,0.07-2.86,0.92-2.83,2.92
		c0.06,3.19,0,6.38,0.04,9.58c0.06,5.82-1.28,5.84,6.07,5.85c2.25,0,3.35-0.7,3.15-3.13C43.96,133.47,44.09,131.46,44.09,129.47z"/>
	<path class="st0" d="M37.38,38.82c-0.71,0.02-2.02-0.97-2.07-1.6c-0.24-3.08-0.46-6.22-0.08-9.27c0.28-2.26,2.56-2.11,4.39-2.11
		c14.32,0,28.65,0,42.97,0v-0.01c14.32,0,28.65-0.01,42.97,0.02c0.88,0,1.87,0.02,2.62,0.41c0.59,0.3,1.22,1.18,1.21,1.8
		c-0.01,0.61-0.68,1.49-1.27,1.74c-0.88,0.37-1.95,0.39-2.93,0.39c-27.45,0-54.89,0.02-82.34-0.08c-2.75-0.01-3.94,0.77-3.56,3.59
		c0.14,1.08,0.23,2.27-0.09,3.28C38.93,37.74,38.02,38.8,37.38,38.82"/>
	<path class="st0" d="M28.34,38.97c-0.79-0.87-1.83-1.62-2.29-2.64c-0.38-0.83-0.06-1.97-0.07-2.97c-0.01-1.87-0.92-2.88-2.78-3.33
		c-4.2-1.03-6.58-3.95-6.11-7.24c0.51-3.61,3.59-6.1,7.72-6.1c24.64-0.02,49.29-0.02,73.93-0.02c1.64,0,3.55,0,3.62,2.18
		c0.08,2.54-2.06,2.26-3.73,2.26c-12.22,0.02-24.44,0.01-36.67,0.01c0-0.01,0-0.03,0-0.04c-11.92,0-23.84,0-35.77,0
		c-0.7,0-1.53-0.21-2.07,0.08c-0.96,0.52-1.76,1.37-2.62,2.07c0.7,0.83,1.24,2.09,2.13,2.41c6.14,2.21,7.57,4.3,6.62,10.76
		C30.12,37.33,29.01,38.11,28.34,38.97"/>
</g>
</svg>
