<?xml version="1.0" encoding="utf-8"?>
<!-- Generator: Adobe Illustrator 26.0.3, SVG Export Plug-In . SVG Version: 6.00 Build 0)  -->
<svg version="1.1" id="Capa_1" xmlns="http://www.w3.org/2000/svg" xmlns:xlink="http://www.w3.org/1999/xlink" x="0px" y="0px"
	 viewBox="0 0 160 160" style="enable-background:new 0 0 160 160;" xml:space="preserve">
<style type="text/css">
	.st0{fill:#FFFFFF;}
</style>
<path class="st0" d="M29.01,80.01c0-17.48,0.13-34.96-0.07-52.44c-0.06-5.48,3.13-9.9,9.72-9.84c28.23,0.27,56.47,0.12,84.7,0.1
	c5.72,0,8.56,2.78,8.55,8.59c-0.02,15.8-0.06,31.6-0.13,47.4c-0.08,19.54-0.24,39.08-0.27,58.62c-0.01,4.2-1.06,7.59-5.29,9.2
	c-1.01,0.39-2.16,0.58-3.25,0.58c-28.14,0.03-56.28,0.03-84.42,0.03c-5.27,0-8.79-3.34-8.83-8.7c-0.11-15.8-0.12-31.6-0.17-47.4
	c-0.01-2.05,0-4.1,0-6.16C29.36,80.01,29.19,80.01,29.01,80.01z M80.82,46.02c-13.93,0-27.86-0.01-41.79,0
	c-3.17,0-4.08,0.87-4.08,3.95c-0.01,27.39-0.01,54.78,0.01,82.17c0,3.9,0.93,4.77,4.82,4.77c7.01,0,14.02-0.01,21.04-0.01
	c20.29,0,40.58,0.01,60.87,0.01c3.66,0,4.66-1.01,4.66-4.66c0-1.59-0.02-3.18-0.02-4.77c0-25.52,0.01-51.05,0.01-76.57
	c0-4.3-0.64-4.9-4.84-4.89C107.94,46.03,94.38,46.02,80.82,46.02z M80.42,41.11c14.11,0,28.22,0,42.33,0c3.28,0,4.02-0.7,4.02-3.87
	c0-3.46-0.1-6.92-0.01-10.37c0.07-2.64-1.09-3.71-3.69-3.71c-28.31,0.03-56.63,0.03-84.94-0.01c-2.69,0-3.67,1.29-3.62,3.81
	c0.06,3.36,0.02,6.73,0.05,10.09c0.04,3.54,0.58,4.06,4.08,4.06C52.57,41.11,66.5,41.11,80.42,41.11z"/>
<path class="st0" d="M80.33,128.54c-20.1-0.29-37.08-16.36-36.7-38.27c0.35-19.95,17.18-36.44,37.45-36.06
	c20.62,0.39,36.83,16.49,36.58,38.08C117.44,112.29,100.44,128.76,80.33,128.54z M80.52,122.71c0.06,0.22,0.13,0.45,0.19,0.67
	c4.18-1.17,8.55-1.91,12.51-3.59c11.2-4.75,18.32-16.59,17.72-28.74c-0.03-0.67-0.46-1.32-0.71-1.97c-0.63,0.43-1.41,0.74-1.86,1.3
	c-1.75,2.18-3.19,4.63-5.1,6.65c-5.17,5.47-11,6.91-17.8,3.71c-5.37-2.53-10.31-5.98-15.43-9.04c-4.48-2.67-8.84-5.58-13.48-7.97
	c-3.2-1.65-5.8-0.13-5.81,3.43c-0.01,4.7-0.01,9.59,1.2,14.06C55.4,113.94,67.46,122.7,80.52,122.71z"/>
<path class="st0" d="M101.54,32.41c-0.04,3.54-2.91,6.19-6.6,6.11c-3.38-0.08-5.76-2.74-5.67-6.33c0.09-3.48,2.74-6.13,6.03-6.04
	C98.75,26.25,101.58,29.09,101.54,32.41z"/>
<path class="st0" d="M114.61,38.52c-3.14,0.01-5.99-2.91-6-6.17c-0.02-3.15,2.98-6.24,6.01-6.21c3.36,0.04,6.34,2.97,6.34,6.23
	C120.95,35.72,118.07,38.51,114.61,38.52z"/>
</svg>
