<?xml version="1.0" encoding="utf-8"?>
<!-- Generator: Adobe Illustrator 26.0.3, SVG Export Plug-In . SVG Version: 6.00 Build 0)  -->
<svg version="1.1" id="Capa_1" xmlns="http://www.w3.org/2000/svg" xmlns:xlink="http://www.w3.org/1999/xlink" x="0px" y="0px"
	 viewBox="0 0 160 160" style="enable-background:new 0 0 160 160;" xml:space="preserve">
<style type="text/css">
	.st0{fill:#FFFFFF;}
</style>
<g>
	<path class="st0" d="M47.33,107.52c0-11.04-0.03-22.07,0.03-33.11c0.01-1.76-0.36-3.01-2.02-3.95
		c-7.52-4.29-11.29-10.97-11.48-19.49c-0.23-10.09-0.08-20.19-0.04-30.28c0.01-3.58,1.99-6.34,5.07-6.96
		c2.75-0.55,4.76,0.95,6.11,3.15c0.59,0.97,0.78,2.3,0.79,3.48c0.06,7.64,0.03,15.28,0.03,22.92c0,0.75-0.18,1.59,0.08,2.24
		c0.3,0.76,1,1.36,1.52,2.03c0.59-0.71,1.31-1.35,1.71-2.15c0.26-0.53,0.06-1.3,0.06-1.96c0-7.26-0.03-14.53,0-21.79
		c0.02-4.39,3.27-8.12,6.97-8.1c3.8,0.01,6.99,3.66,7,8.1c0.02,7.36-0.01,14.72,0,22.07c0,0.84-0.06,1.74,0.2,2.52
		c0.17,0.51,0.94,1.26,1.28,1.19c0.59-0.12,1.29-0.73,1.51-1.3c0.28-0.76,0.17-1.67,0.17-2.52c0-7.36-0.1-14.72,0.06-22.07
		c0.04-1.79,0.51-3.82,1.47-5.29c1.24-1.9,3.29-3.27,5.83-2.49c2.62,0.81,4.34,2.62,4.82,5.39c0.16,0.92,0.1,1.88,0.1,2.82
		c0.01,9.15-0.03,18.3,0.01,27.45c0.04,9.1-3.48,16.23-11.44,20.91c-1.7,1-2.06,2.43-2.05,4.29c0.05,21.6,0.11,43.21-0.04,64.81
		c-0.02,2.49-0.86,5.24-2.14,7.38c-1.88,3.14-5.14,4.34-8.82,3.55c-3.05-0.65-6.24-4.46-6.68-7.77c-0.13-0.93-0.12-1.88-0.12-2.82
		c-0.01-10.75,0-21.51,0-32.26C47.32,107.52,47.32,107.52,47.33,107.52z M51.26,106.2c0,0-0.01,0-0.01,0c0,8.68,0,17.36,0,26.04
		c0,3.02-0.13,6.04,0.03,9.06c0.18,3.41,2.45,5.25,5.6,4.81c2.95-0.41,4.17-2.22,4.17-6.32c0-22.36,0.02-44.73-0.04-67.09
		c-0.01-2.32,0.62-3.73,2.85-4.9c7.09-3.72,10.86-9.54,10.71-17.82c-0.17-9.34-0.02-18.68-0.05-28.02c0-1.72,0.46-4.25-2.02-4.19
		c-2.41,0.06-1.89,2.61-1.9,4.3c-0.04,7.55,0.04,15.1-0.01,22.65c-0.03,4.18-2.52,7.07-5.83,7c-3.32-0.07-5.35-2.67-5.36-6.94
		c-0.01-7.27,0-14.53,0.01-21.8c0-3.37-1.21-5.36-3.26-5.36c-1.95,0-3.03,1.83-3.03,5.17c0,7.74,0.03,15.47-0.02,23.21
		c-0.02,2.6-2.08,5.13-4.34,5.65c-2.54,0.57-5.01-0.64-6.19-3.31c-0.47-1.07-0.6-2.36-0.6-3.56c-0.05-8.02-0.01-16.04-0.03-24.06
		c0-1.47-0.23-3.22-2.11-2.93c-0.8,0.13-1.4,1.82-2,2.85c-0.16,0.28-0.03,0.74-0.03,1.12c0,9.44,0.09,18.87-0.02,28.31
		c-0.1,8.1,3.48,13.91,10.57,17.55c2.14,1.1,2.97,2.51,2.95,4.9C51.21,83.75,51.26,94.98,51.26,106.2z"/>
	<path class="st0" d="M119.35,78.88c0,19.53,0,39.07,0,58.6c0,5.88-3.66,10.17-8.74,10.12c-4.66-0.05-9.35-4.05-9.27-10.39
		c0.14-12.08,0-24.16,0.09-36.23c0.02-2.49-0.56-3.62-3.33-3.37c-2.22,0.2-4.55,0.03-6.73-0.45c-4.35-0.96-7.51-4.97-7.52-9.43
		c-0.05-15.48-0.11-30.95,0.04-46.43c0.05-4.94,2.32-9.27,5.06-13.3c4.87-7.16,11.84-11.86,19.36-15.64
		c5.84-2.94,11.04,0.74,11.04,7.34C119.36,39.44,119.35,59.16,119.35,78.88z M115.46,79.09c0-19.62,0-39.24,0-58.85
		c0-3.6-0.6-4.18-4.11-3.89c-0.92,0.08-1.97,0.19-2.7,0.67c-4.3,2.83-8.86,5.4-12.68,8.78c-4.58,4.05-8,9.33-8.12,15.65
		c-0.28,15.27-0.17,30.56-0.07,45.84c0.03,4.12,2.8,6.48,6.97,6.51c2.17,0.02,4.34-0.01,6.51,0c3.83,0.01,4.21,0.37,4.22,4.2
		c0.01,9.71,0,19.43,0,29.14c0,3.87-0.11,7.74,0.06,11.6c0.11,2.5,1.64,4.23,4.11,4.75c2.45,0.52,4.31-0.68,5.31-2.82
		c0.52-1.12,0.49-2.57,0.49-3.86C115.47,117.57,115.46,98.33,115.46,79.09z"/>
	<path class="st0" d="M148.01,81.74c0.58,17.18-5.71,31.79-16.76,44.61c-0.8,0.93-1.6,1.96-2.62,2.55c-0.78,0.45-1.92,0.28-2.9,0.39
		c0.08-1-0.21-2.28,0.29-2.97c2.85-3.85,6.24-7.34,8.8-11.36c8.33-13.04,11.3-27.35,9.04-42.68c-1.99-13.48-8-24.96-17.51-34.66
		c-0.94-0.96-2.49-1.96-1.05-3.52c1.52-1.66,2.89-0.26,3.84,0.76c7.57,8.07,13.84,17,16.43,27.92c1.47,6.17,2.18,12.52,3.22,18.79
		C148.54,81.64,148.28,81.69,148.01,81.74z"/>
	<path class="st0" d="M16.03,81.11c0.19-11.48,3.47-22.64,9.4-33.02c0.79-1.38,1.54-3.94,3.81-2.73c2.79,1.49,0.3,3.34-0.48,4.7
		c-7.74,13.46-10,27.79-7.38,43.04c2.47,14.33,9.3,26.11,20.2,35.62c0.36,0.31,0.85,0.58,1.01,0.98c0.39,0.99,1.17,2.34,0.81,3.01
		c-0.87,1.59-2.21,0.81-3.31-0.1c-6.87-5.64-12.36-12.41-16.36-20.34C18.88,102.66,16.1,92.48,16.03,81.11z"/>
	<path class="st0" d="M133.05,81.96c0.19,8.06-1.75,15.66-5.32,22.86c-0.29,0.59-0.56,1.35-1.06,1.64c-0.76,0.44-1.73,0.55-2.6,0.8
		c-0.2-0.88-0.77-1.88-0.53-2.62c1.59-5.08,3.52-10.07,5.02-15.18c1.52-5.16,1.1-10.37,0.05-15.64c-1.08-5.41-2.8-10.49-5.41-15.34
		c-0.39-0.73,0.36-2.07,0.58-3.12c0.99,0.48,2.43,0.7,2.89,1.49c3.67,6.26,5.71,13.09,6.37,20.31
		C133.17,78.75,133.05,80.36,133.05,81.96z"/>
	<path class="st0" d="M31.25,81.58c0.61-3.99,1.1-8,1.91-11.94c0.19-0.92,1.45-1.63,2.22-2.43c0.49,0.99,1.43,2.01,1.37,2.98
		c-0.2,3.56-0.91,7.1-1.08,10.67c-0.49,9.93,2.36,18.94,7.72,27.26c0.5,0.77,0.69,2.51,0.21,3c-1.36,1.38-2.54,0.31-3.4-0.98
		C34.42,101.52,31.58,92.01,31.25,81.58z"/>
	<path class="st0" d="M83.37,133c-4.7-0.56-8.53-0.95-12.34-1.51c-1.4-0.21-3.11-0.83-2.41-2.65c0.26-0.68,2.11-1.18,3.16-1.06
		c8.27,0.92,16.49,1.47,24.63-1.08c0.87-0.27,2.14,0.71,3.23,1.11c-0.86,0.95-1.59,2.51-2.61,2.74
		C92.27,131.61,87.43,132.3,83.37,133z"/>
	<path class="st0" d="M83.34,148.22c-4.25-0.39-7.84-0.56-11.35-1.15c-1.08-0.18-1.96-1.55-2.93-2.38c1.18-0.47,2.43-1.46,3.53-1.32
		c7.45,0.96,14.83,0.86,22.23-0.45c0.89-0.16,1.99,0.82,2.99,1.27c-0.75,0.81-1.4,2.16-2.27,2.32
		C91.3,147.29,87,147.74,83.34,148.22z"/>
	<path class="st0" d="M84.75,15.53c2.55,0.26,4.91,0.37,7.21,0.83c0.76,0.15,1.33,1.23,1.98,1.89c-0.77,0.65-1.54,1.86-2.31,1.87
		c-2.99,0.02-6.01-0.21-8.97-0.66c-0.81-0.12-1.45-1.36-2.17-2.09c0.74-0.61,1.4-1.39,2.25-1.78C83.35,15.3,84.2,15.53,84.75,15.53z
		"/>
</g>
</svg>
